<svg width="702" height="292" viewBox="0 0 702 292" fill="none" xmlns="http://www.w3.org/2000/svg">
<path d="M218 186.8V238H188V285.6H132.4V238H0V186.8L93.2 5.6H152.4L59.6 186.8H132.4V120.4H188V186.8H218Z" fill="#EFEFEF"/>
<path d="M349.631 291.2C314.698 291.2 287.231 278 267.231 251.6C247.498 224.933 237.631 189.6 237.631 145.6C237.631 101.6 247.498 66.4 267.231 40C287.231 13.3333 314.698 0 349.631 0C384.831 0 412.298 13.3333 432.031 40C451.765 66.4 461.631 101.6 461.631 145.6C461.631 189.6 451.765 224.933 432.031 251.6C412.298 278 384.831 291.2 349.631 291.2ZM307.231 214C316.831 229.467 330.965 237.2 349.631 237.2C368.298 237.2 382.431 229.333 392.031 213.6C401.898 197.867 406.831 175.2 406.831 145.6C406.831 115.733 401.898 92.9333 392.031 77.2C382.431 61.4667 368.298 53.6 349.631 53.6C330.965 53.6 316.831 61.4667 307.231 77.2C297.631 92.9333 292.831 115.733 292.831 145.6C292.831 175.467 297.631 198.267 307.231 214Z" fill="#EFEFEF"/>
<path d="M701.984 186.8V238H671.984V285.6H616.384V238H483.984V186.8L577.184 5.6H636.384L543.584 186.8H616.384V120.4H671.984V186.8H701.984Z" fill="#EFEFEF"/>
</svg>
