<svg width="12" height="12" viewBox="0 0 12 12" fill="none" xmlns="http://www.w3.org/2000/svg">
<path d="M11.808 2.54806L11.4149 2.15499C11.2914 2.03138 11.1267 1.96338 10.9509 1.96338C10.7751 1.96338 10.6103 2.03138 10.4868 2.15499L4.96361 7.6781L1.51278 4.22718C1.38927 4.10377 1.22449 4.03567 1.04868 4.03567C0.872976 4.03567 0.708293 4.10377 0.584683 4.22718L0.191512 4.62016C0.0679024 4.74396 0 4.90884 0 5.08445C0 5.26015 0.0679024 5.42493 0.191512 5.54854L4.08771 9.44454C4.09288 9.45186 4.09834 9.45868 4.10468 9.46493L4.49785 9.85156C4.62137 9.97468 4.78615 10.0362 4.96332 10.0362H4.96537C5.14127 10.0362 5.30605 9.97468 5.42937 9.85156L5.82263 9.46151C5.82898 9.45527 5.83434 9.4501 5.83756 9.44483L11.8079 3.47508C12.064 3.21957 12.064 2.80387 11.808 2.54806Z" fill="#B5C830"/>
</svg>
