<svg width="24" height="24" viewBox="0 0 24 24" fill="none" xmlns="http://www.w3.org/2000/svg">
<path d="M0 3.99976V9.33305V14.6664V19.9997H24V14.6664V9.33305V3.99976H0Z" fill="#F0F0F0"/>
<path d="M24 4H0V20.0002H24V4Z" fill="#0052B4"/>
<path d="M24 4H0V9.33321H24V4Z" fill="#F0F0F0"/>
<path d="M24 14.6665H0V19.9997H24V14.6665Z" fill="#D80027"/>
<path d="M24 4H0V20.0002H24V4Z" fill="#F0F0F0"/>
<path d="M13.5 3.99976H10.5V10.4997H0V13.4997H10.5V19.9997H13.5V13.4997H24V10.4997H13.5V3.99976Z" fill="#D80027"/>
<path d="M5.77246 6.72806V5.68457H4.72903V6.72806H3.68555V7.77154H4.72903V8.81503H5.77246V7.77154H6.81595V6.72806H5.77246Z" fill="#D80027"/>
<path d="M19.2725 6.72806V5.68457H18.229V6.72806H17.1855V7.77154H18.229V8.81503H19.2725V7.77154H20.316V6.72806H19.2725Z" fill="#D80027"/>
<path d="M5.77246 16.2278V15.1843H4.72903V16.2278H3.68555V17.2713H4.72903V18.3148H5.77246V17.2713H6.81595V16.2278H5.77246Z" fill="#D80027"/>
<path d="M19.2725 16.2278V15.1843H18.229V16.2278H17.1855V17.2713H18.229V18.3148H19.2725V17.2713H20.316V16.2278H19.2725Z" fill="#D80027"/>
</svg>
