<svg width="29" height="40" viewBox="0 0 29 40" fill="none" xmlns="http://www.w3.org/2000/svg">
<path d="M14.6436 0.291992C7.09688 0.291992 0.957031 6.43184 0.957031 13.9786C0.957031 23.464 14.6571 39.667 14.6571 39.667C14.6571 39.667 28.3302 22.9975 28.3302 13.9786C28.3302 6.43184 22.1905 0.291992 14.6436 0.291992ZM18.7731 17.986C17.6344 19.1244 16.1391 19.6937 14.6436 19.6937C13.1483 19.6937 11.6525 19.1244 10.5143 17.986C8.23722 15.7091 8.23722 12.0043 10.5143 9.72719C11.6169 8.62409 13.0836 8.01655 14.6436 8.01655C16.2035 8.01655 17.67 8.62433 18.7731 9.72719C21.0502 12.0043 21.0502 15.7091 18.7731 17.986Z" fill="#B5C830"/>
</svg>
