<svg width="463" height="110" viewBox="0 0 463 110" fill="none" xmlns="http://www.w3.org/2000/svg">
<path fill-rule="evenodd" clip-rule="evenodd" d="M73.8665 12.0212L61.7422 0L61.7412 0.000982955L37.4735 24.0623L49.5978 36.0835L61.7218 24.0627L73.8457 36.1025L85.9704 24.0621L73.8559 12.0317L73.8665 12.0212Z" fill="#B5C830"/>
<path fill-rule="evenodd" clip-rule="evenodd" d="M113.475 51.3736L101.351 39.3332L101.35 39.3343L89.2252 27.2942L77.1004 39.3347L89.2247 51.3748L77.1011 63.414L89.2259 75.4543L101.349 63.4152L101.35 63.4158L113.475 51.3752L113.474 51.3748L113.475 51.3736Z" fill="#B5C830"/>
<path fill-rule="evenodd" clip-rule="evenodd" d="M49.6156 90.7067L61.7402 102.748L85.9894 78.6659L73.8648 66.625L61.7406 78.6655L49.6161 66.625L37.4915 78.6655L49.6162 90.7062L49.6156 90.7067Z" fill="#B5C830"/>
<path fill-rule="evenodd" clip-rule="evenodd" d="M10.0101 51.3755L22.1349 63.4151L22.1388 63.4112L34.2665 75.4459L46.3956 63.4097L34.264 51.3712L46.3854 39.335L34.2601 27.295L14.5127 46.9036L10.0082 51.3736L10.0096 51.375L10.0101 51.3755Z" fill="#B5C830"/>
<path d="M71.1703 105.581L72.246 104.508C72.3351 104.651 72.4107 104.811 72.4727 104.989C72.5386 105.164 72.5812 105.388 72.6006 105.663C72.6239 105.934 72.6045 106.212 72.5425 106.499C72.4805 106.777 72.3448 107.094 72.1355 107.45C71.9339 107.806 71.6626 108.155 71.3215 108.495C70.5696 109.246 69.7808 109.654 68.9552 109.72C68.1257 109.782 67.3601 109.463 66.6586 108.762C66.019 108.124 65.7128 107.389 65.7399 106.557C65.7671 105.717 66.1896 104.889 67.0074 104.072C67.6198 103.461 68.2575 103.076 68.9203 102.917C69.5792 102.755 70.1529 102.782 70.6413 102.999L69.6587 104.258C68.9261 104.107 68.2943 104.297 67.7633 104.827C67.5036 105.086 67.3194 105.359 67.2109 105.645C67.1024 105.932 67.0675 106.203 67.1063 106.458C67.1489 106.709 67.2225 106.942 67.3272 107.154C67.4357 107.363 67.5714 107.549 67.7342 107.712C68.1373 108.114 68.6141 108.315 69.1645 108.315C69.7188 108.311 70.2149 108.091 70.6529 107.654C71.2769 107.031 71.4494 106.34 71.1703 105.581Z" fill="#B5C830"/>
<path d="M72.0074 103.434C71.6237 103.051 71.3582 102.647 71.2109 102.221C71.0597 101.791 71.0209 101.377 71.0946 100.979C71.1682 100.573 71.3078 100.186 71.5132 99.818C71.7225 99.4465 71.9919 99.0963 72.3214 98.7674C72.6586 98.4308 73.0074 98.156 73.3679 97.9432C73.7323 97.7265 74.116 97.5756 74.5191 97.4905C74.9261 97.4015 75.3447 97.4286 75.775 97.5717C76.2052 97.7149 76.6141 97.98 77.0018 98.3669C77.6917 99.0557 78.0173 99.818 77.9785 100.654C77.9398 101.482 77.5212 102.294 76.7227 103.092C75.9242 103.889 75.1044 104.312 74.2633 104.363C73.4261 104.409 72.6741 104.1 72.0074 103.434ZM73.0946 102.407C73.2691 102.581 73.4648 102.722 73.6819 102.83C73.8951 102.935 74.1276 103.005 74.3796 103.039C74.6315 103.066 74.897 103.026 75.1761 102.917C75.4552 102.801 75.7207 102.618 75.9727 102.366C76.2285 102.111 76.4107 101.848 76.5192 101.577C76.6238 101.302 76.6684 101.06 76.6529 100.851C76.6374 100.634 76.5851 100.424 76.4959 100.218C76.4107 100.01 76.3273 99.8528 76.2459 99.7483C76.1645 99.6361 76.0831 99.5394 76.0017 99.4581C75.6064 99.0634 75.1374 98.8545 74.5947 98.8313C74.052 98.8003 73.5482 99.017 73.083 99.4813C72.6101 99.9534 72.395 100.462 72.4377 101.008C72.4803 101.546 72.6993 102.012 73.0946 102.407Z" fill="#B5C830"/>
<path d="M85.4409 94.1211L84.4642 95.0963L81.3303 91.9213L83.1676 96.3906L82.2315 97.3251L77.743 95.5026C79.7586 97.4837 80.8187 98.5266 80.9234 98.6311L79.9466 99.6062L75.8418 95.5084L77.3302 94.0225L81.6152 95.7579L79.8652 91.4918L81.3362 90.0233L85.4409 94.1211Z" fill="#B5C830"/>
<path d="M82.5019 88.8595L85.0543 86.3114C85.3761 85.9903 85.6842 85.7562 85.9788 85.6091C86.2734 85.4543 86.599 85.4234 86.9556 85.5163C87.2695 85.5898 87.5738 85.7736 87.8684 86.0677C88.2172 86.4159 88.4052 86.7855 88.4324 87.1763C88.4556 87.5168 88.3917 87.8167 88.2405 88.0759C88.0893 88.3352 87.8432 88.6351 87.5021 88.9756L86.0718 90.4035L87.6184 91.9474L86.6067 92.9573L82.5019 88.8595ZM84.2229 88.5577L85.3509 89.6837L86.6125 88.4242C86.8529 88.1843 87.0001 87.9985 87.0544 87.867C87.1668 87.6 87.097 87.3407 86.8451 87.0892C86.6939 86.9383 86.5176 86.8474 86.316 86.8164C86.1145 86.7855 85.9187 86.8648 85.7288 87.0544L84.2229 88.5577Z" fill="#B5C830"/>
<path d="M94.6505 84.9273L91.3422 88.2299L87.2374 84.1321L88.2665 83.1047L91.6155 86.448L93.8946 84.1727L94.6505 84.9273Z" fill="#B5C830"/>
<path d="M99.1564 80.429L95.2144 84.3643L91.1096 80.2665L94.9353 76.4473L95.6737 77.1844L92.8771 79.9763L93.8015 80.8991L96.5051 78.2001L97.2377 78.9315L94.5341 81.6305L95.5109 82.6056L98.4238 79.6976L99.1564 80.429Z" fill="#B5C830"/>
<path d="M104.572 75.0224L103.27 76.3226L100.502 76.0208L100.805 78.7836L99.4964 80.0896L99.2231 76.0672L95.63 75.7538L96.9149 74.471L99.2638 74.7845L98.9673 72.4221L100.229 71.1626L100.549 74.7438L104.572 75.0224Z" fill="#B5C830"/>
<path d="M101.148 69.2175L103.791 66.5979C104.124 66.2677 104.443 66.027 104.748 65.8758C105.053 65.7167 105.39 65.6849 105.759 65.7804C106.084 65.856 106.399 66.0449 106.704 66.3473C107.065 66.7053 107.26 67.0852 107.288 67.487C107.312 67.8371 107.246 68.1454 107.09 68.4119C106.933 68.6785 106.678 68.9868 106.325 69.3369L104.844 70.8048L106.445 72.3921L105.398 73.4304L101.148 69.2175ZM102.93 68.9072L104.098 70.0649L105.404 68.77C105.653 68.5233 105.805 68.3324 105.862 68.1971C105.978 67.9226 105.906 67.6561 105.645 67.3975C105.488 67.2423 105.306 67.1489 105.097 67.117C104.888 67.0852 104.686 67.1668 104.489 67.3617L102.93 68.9072Z" fill="white"/>
<path d="M114.966 63.9456L113.708 65.1927L110.867 64.6199L109.651 65.8253L111.36 67.52L110.301 68.5702L106.051 64.3573L108.976 61.4572C109.277 61.1589 109.538 60.952 109.759 60.8366C110.108 60.6497 110.465 60.59 110.83 60.6576C111.192 60.7213 111.515 60.8943 111.8 61.1768C112.004 61.3797 112.153 61.6024 112.245 61.8451C112.357 62.1315 112.377 62.4021 112.305 62.6567C112.237 62.9073 112.1 63.1778 111.896 63.4682L114.966 63.9456ZM107.857 64.047L108.898 65.0794L110.65 63.3429C111.043 62.953 111.071 62.591 110.734 62.2568C110.377 61.9028 109.988 61.9346 109.566 62.3523L107.857 64.047Z" fill="white"/>
<path d="M113.238 61.4453C112.841 61.0515 112.566 60.6357 112.413 60.1981C112.257 59.7566 112.217 59.3309 112.293 58.9212C112.369 58.5034 112.514 58.1056 112.726 57.7277C112.943 57.3458 113.222 56.9858 113.563 56.6476C113.912 56.3015 114.273 56.0191 114.647 55.8003C115.024 55.5775 115.421 55.4224 115.838 55.3348C116.26 55.2433 116.693 55.2712 117.139 55.4184C117.584 55.5656 118.007 55.8381 118.409 56.2359C119.123 56.944 119.46 57.7277 119.42 58.587C119.38 59.4383 118.946 60.2737 118.12 61.0932C117.293 61.9127 116.444 62.3483 115.574 62.4001C114.707 62.4478 113.928 62.1295 113.238 61.4453ZM114.364 60.3891C114.544 60.5681 114.747 60.7133 114.972 60.8247C115.192 60.9321 115.433 61.0037 115.694 61.0395C115.955 61.0674 116.23 61.0256 116.519 60.9142C116.808 60.7949 117.082 60.6059 117.343 60.3473C117.608 60.0848 117.797 59.8143 117.909 59.5358C118.017 59.2533 118.064 59.0047 118.048 58.7899C118.032 58.5671 117.977 58.3503 117.885 58.1394C117.797 57.9246 117.71 57.7635 117.626 57.6561C117.542 57.5407 117.458 57.4413 117.373 57.3577C116.964 56.952 116.479 56.7371 115.917 56.7133C115.355 56.6814 114.833 56.9042 114.352 57.3816C113.862 57.8669 113.639 58.3901 113.684 58.951C113.728 59.504 113.954 59.9833 114.364 60.3891Z" fill="white"/>
<path d="M165.69 56.2097H158.663L147.616 41.8135V56.2097H141.518V25.4861H147.616V39.0484L158.221 25.4861H165.248L153.802 40.409L165.69 56.2097Z" fill="#B5C830"/>
<path d="M192.101 52.2156C188.978 55.288 185.177 56.8242 180.699 56.8242C176.222 56.8242 172.421 55.288 169.298 52.2156C166.205 49.114 164.658 45.3248 164.658 40.8479C164.658 36.371 166.205 32.5964 169.298 29.524C172.421 26.4224 176.222 24.8716 180.699 24.8716C185.177 24.8716 188.978 26.4224 192.101 29.524C195.223 32.5964 196.785 36.371 196.785 40.8479C196.785 45.3248 195.223 49.114 192.101 52.2156ZM173.585 48.0899C175.5 49.9626 177.871 50.8989 180.699 50.8989C183.528 50.8989 185.899 49.9626 187.814 48.0899C189.729 46.1879 190.686 43.7739 190.686 40.8479C190.686 37.9218 189.729 35.5078 187.814 33.6059C185.899 31.7039 183.528 30.753 180.699 30.753C177.871 30.753 175.5 31.7039 173.585 33.6059C171.67 35.5078 170.712 37.9218 170.712 40.8479C170.712 43.7739 171.67 46.1879 173.585 48.0899Z" fill="#B5C830"/>
<path d="M231.341 25.4861V56.2097H225.287V36.2832L216.582 50.5478H215.875L207.169 36.3271V56.2097H201.071V25.4861H207.346L216.228 40.014L225.066 25.4861H231.341Z" fill="#B5C830"/>
<path d="M260.216 25.4861V56.2097H254.118V31.2797H243.203V56.2097H237.105V25.4861H260.216Z" fill="#B5C830"/>
<path d="M263.589 56.2097V50.5917C265.416 50.855 266.785 50.4893 267.699 49.4944C268.612 48.4995 269.069 46.5537 269.069 43.6569V25.4861H290.103V56.2097H284.049V31.2797H275.123V43.4813C275.123 46.1441 274.799 48.3825 274.15 50.1966C273.502 52.0108 272.604 53.3568 271.455 54.2346C270.335 55.1124 269.128 55.6976 267.831 55.9902C266.564 56.2829 265.15 56.356 263.589 56.2097Z" fill="#B5C830"/>
<path d="M301.936 50.4161H314.973V56.2097H295.838V25.4861H314.752V31.2797H301.936V37.8194H313.647V43.5252H301.936V50.4161Z" fill="#B5C830"/>
<path d="M343.443 56.2097H336.417L325.369 41.8135V56.2097H319.271V25.4861H325.369V39.0484L335.975 25.4861H343.001L331.556 40.409L343.443 56.2097Z" fill="#B5C830"/>
<path d="M358.497 56.8242C353.843 56.8242 349.998 55.288 346.964 52.2156C343.929 49.1433 342.412 45.354 342.412 40.8479C342.412 36.3125 343.929 32.5232 346.964 29.4801C349.998 26.4078 353.843 24.8716 358.497 24.8716C361.296 24.8716 363.874 25.5299 366.23 26.8467C368.617 28.1341 370.473 29.8898 371.798 32.1136L366.54 35.1421C365.774 33.7668 364.684 32.6988 363.27 31.938C361.856 31.148 360.265 30.753 358.497 30.753C355.492 30.753 353.062 31.6893 351.206 33.562C349.379 35.4347 348.466 37.8633 348.466 40.8479C348.466 43.8032 349.379 46.2172 351.206 48.0899C353.062 49.9626 355.492 50.8989 358.497 50.8989C360.265 50.8989 361.856 50.5185 363.27 49.7577C364.713 48.9677 365.803 47.8997 366.54 46.5537L371.798 49.5822C370.473 51.806 368.632 53.5762 366.275 54.893C363.918 56.1804 361.325 56.8242 358.497 56.8242Z" fill="#B5C830"/>
<path d="M400.236 25.4865V56.2102H394.138V31.2801H383.223V56.2102H377.125V25.4865H400.236Z" fill="white"/>
<path d="M417.529 25.4865C420.505 25.4865 423.009 26.4814 425.041 28.4711C427.074 30.4608 428.091 32.9041 428.091 35.8009C428.091 38.6977 427.074 41.141 425.041 43.1307C423.009 45.1204 420.505 46.1153 417.529 46.1153H412.094V56.2102H405.995V25.4865H417.529ZM417.529 40.4533C418.825 40.4533 419.901 40.0144 420.755 39.1366C421.609 38.2295 422.036 37.1176 422.036 35.8009C422.036 34.4549 421.609 33.343 420.755 32.4652C419.901 31.5874 418.825 31.1485 417.529 31.1485H412.094V40.4533H417.529Z" fill="white"/>
<path d="M457.873 52.2161C454.75 55.2885 450.95 56.8247 446.472 56.8247C441.994 56.8247 438.194 55.2885 435.071 52.2161C431.978 49.1145 430.431 45.3252 430.431 40.8484C430.431 36.3715 431.978 32.5969 435.071 29.5245C438.194 26.4229 441.994 24.8721 446.472 24.8721C450.95 24.8721 454.75 26.4229 457.873 29.5245C460.996 32.5969 462.557 36.3715 462.557 40.8484C462.557 45.3252 460.996 49.1145 457.873 52.2161ZM439.357 48.0904C441.272 49.9631 443.644 50.8994 446.472 50.8994C449.3 50.8994 451.672 49.9631 453.587 48.0904C455.501 46.1884 456.459 43.7744 456.459 40.8484C456.459 37.9223 455.501 35.5083 453.587 33.6064C451.672 31.7044 449.3 30.7535 446.472 30.7535C443.644 30.7535 441.272 31.7044 439.357 33.6064C437.442 35.5083 436.485 37.9223 436.485 40.8484C436.485 43.7744 437.442 46.1884 439.357 48.0904Z" fill="white"/>
<path d="M152.053 84.3256H150.407V78.6003H143.164V84.3256H141.518V71.7509H143.164V77.1886H150.407V71.7509H152.053V84.3256Z" fill="white"/>
<path d="M155.921 73.2933C157.013 72.1256 158.494 71.5417 160.366 71.5417C162.238 71.5417 163.719 72.1256 164.81 73.2933C165.902 74.461 166.447 76.0441 166.447 78.0426C166.447 80.0411 165.902 81.6242 164.81 82.7919C163.719 83.9538 162.238 84.5347 160.366 84.5347C158.494 84.5347 157.013 83.9538 155.921 82.7919C154.83 81.6242 154.284 80.0411 154.284 78.0426C154.284 76.0441 154.83 74.461 155.921 73.2933ZM163.567 74.3564C162.78 73.4444 161.713 72.9883 160.366 72.9883C159.018 72.9883 157.948 73.4444 157.156 74.3564C156.369 75.2627 155.976 76.4914 155.976 78.0426C155.976 79.5879 156.369 80.8166 157.156 81.7287C157.948 82.635 159.018 83.0882 160.366 83.0882C161.713 83.0882 162.78 82.635 163.567 81.7287C164.359 80.8166 164.756 79.5879 164.756 78.0426C164.756 76.4914 164.359 75.2627 163.567 74.3564Z" fill="white"/>
<path d="M173.663 84.3256H168.679V71.7509H173.681C174.809 71.7509 175.721 72.0384 176.416 72.6136C177.117 73.1887 177.467 73.9469 177.467 74.888C177.467 75.5445 177.245 76.14 176.8 76.6744C176.361 77.2031 175.824 77.5226 175.19 77.633V77.7027C176.086 77.8131 176.8 78.1472 177.33 78.7049C177.867 79.2626 178.135 79.9597 178.135 80.7963C178.135 81.9059 177.739 82.7715 176.946 83.3932C176.16 84.0148 175.065 84.3256 173.663 84.3256ZM170.325 73.1364V77.1712H172.794C173.77 77.1712 174.513 76.9911 175.026 76.6309C175.544 76.2707 175.803 75.7507 175.803 75.071C175.803 74.4494 175.587 73.973 175.154 73.6419C174.721 73.3049 174.105 73.1364 173.306 73.1364H170.325ZM170.325 82.94H173.416C174.41 82.94 175.163 82.7512 175.675 82.3736C176.187 81.996 176.443 81.4441 176.443 80.7179C176.443 79.2539 175.382 78.5219 173.261 78.5219H170.325V82.94Z" fill="white"/>
<path d="M180.184 84.3256V71.7509H181.83V76.413H185.058C186.302 76.413 187.32 76.7848 188.112 77.5284C188.905 78.2663 189.301 79.2161 189.301 80.378C189.301 81.5399 188.908 82.4898 188.122 83.2276C187.335 83.9596 186.32 84.3256 185.076 84.3256H180.184ZM181.83 82.9139H184.646C185.591 82.9139 186.32 82.6931 186.832 82.2516C187.35 81.8101 187.609 81.1855 187.609 80.378C187.609 79.5647 187.35 78.9373 186.832 78.4957C186.32 78.0484 185.591 77.8247 184.646 77.8247H181.83V82.9139ZM192.712 84.3256H191.066V71.7509H192.712V84.3256Z" fill="white"/>
<path d="M203.632 82.9139V84.3256H195.456V71.7509H203.632V73.1626H197.102V77.1973H203.293V78.5916H197.102V82.9139H203.632Z" fill="white"/>
<path d="M214.816 84.3256H213.17V73.1626H209.009V71.7509H218.978V73.1626H214.816V84.3256Z" fill="white"/>
<path d="M229.074 82.9139V84.3256H220.898V71.7509H229.074V73.1626H222.544V77.1973H228.735V78.5916H222.544V82.9139H229.074Z" fill="white"/>
<path d="M230.564 84.3256L235.055 78.0252V77.9642L230.619 71.7509H232.604L236.125 76.8052H236.189L239.755 71.7509H241.63L237.076 78.0426V78.0949L241.53 84.3256H239.554L236.052 79.3149H235.988L232.43 84.3256H230.564Z" fill="white"/>
<path d="M254.04 84.3256H252.394V78.6003H245.151V84.3256H243.505V71.7509H245.151V77.1886H252.394V71.7509H254.04V84.3256Z" fill="white"/>
<path d="M257.909 73.2933C259 72.1256 260.482 71.5417 262.353 71.5417C264.225 71.5417 265.706 72.1256 266.798 73.2933C267.889 74.461 268.435 76.0441 268.435 78.0426C268.435 80.0411 267.889 81.6242 266.798 82.7919C265.706 83.9538 264.225 84.5347 262.353 84.5347C260.482 84.5347 259 83.9538 257.909 82.7919C256.817 81.6242 256.272 80.0411 256.272 78.0426C256.272 76.0441 256.817 74.461 257.909 73.2933ZM265.554 74.3564C264.768 73.4444 263.701 72.9883 262.353 72.9883C261.006 72.9883 259.936 73.4444 259.143 74.3564C258.357 75.2627 257.964 76.4914 257.964 78.0426C257.964 79.5879 258.357 80.8166 259.143 81.7287C259.936 82.635 261.006 83.0882 262.353 83.0882C263.701 83.0882 264.768 82.635 265.554 81.7287C266.347 80.8166 266.743 79.5879 266.743 78.0426C266.743 76.4914 266.347 75.2627 265.554 74.3564Z" fill="white"/>
<path d="M279.912 84.3256H278.266V73.1626H273.446L273.026 79.6199C272.916 81.293 272.593 82.5101 272.056 83.2712C271.526 84.0264 270.727 84.404 269.66 84.404C269.416 84.404 269.203 84.375 269.02 84.3169V82.9139C269.154 82.9487 269.319 82.9662 269.514 82.9662C270.142 82.9662 270.605 82.7018 270.904 82.1732C271.209 81.6445 271.398 80.7731 271.471 79.5589L271.947 71.7509H279.912V84.3256Z" fill="white"/>
<path d="M283.79 73.2933C284.881 72.1256 286.362 71.5417 288.234 71.5417C290.106 71.5417 291.587 72.1256 292.679 73.2933C293.77 74.461 294.316 76.0441 294.316 78.0426C294.316 80.0411 293.77 81.6242 292.679 82.7919C291.587 83.9538 290.106 84.5347 288.234 84.5347C286.362 84.5347 284.881 83.9538 283.79 82.7919C282.698 81.6242 282.153 80.0411 282.153 78.0426C282.153 76.0441 282.698 74.461 283.79 73.2933ZM291.435 74.3564C290.649 73.4444 289.582 72.9883 288.234 72.9883C286.887 72.9883 285.817 73.4444 285.024 74.3564C284.238 75.2627 283.844 76.4914 283.844 78.0426C283.844 79.5879 284.238 80.8166 285.024 81.7287C285.817 82.635 286.887 83.0882 288.234 83.0882C289.582 83.0882 290.649 82.635 291.435 81.7287C292.228 80.8166 292.624 79.5879 292.624 78.0426C292.624 76.4914 292.228 75.2627 291.435 74.3564Z" fill="white"/>
<path d="M298.202 84.3256H296.547V71.7509H304.375V73.18H298.202V84.3256Z" fill="white"/>
<path d="M315.258 84.3256V74.3216H315.112L307.979 84.3256H306.351V71.7509H307.979V81.7897H308.125L315.258 71.7509H316.886V84.3256H315.258Z" fill="white"/>
<path d="M328.537 84.3256V74.3216H328.391L321.258 84.3256H319.63V71.7509H321.258V81.7897H321.404L328.537 71.7509H330.165V84.3256H328.537Z" fill="white"/>
<path d="M341.734 84.3256H336.75V71.7509H341.752C342.88 71.7509 343.791 72.0384 344.486 72.6136C345.188 73.1887 345.538 73.9469 345.538 74.888C345.538 75.5445 345.316 76.14 344.87 76.6744C344.432 77.2031 343.895 77.5226 343.261 77.633V77.7027C344.157 77.8131 344.87 78.1472 345.401 78.7049C345.937 79.2626 346.206 79.9597 346.206 80.7963C346.206 81.9059 345.809 82.7715 345.017 83.3932C344.23 84.0148 343.136 84.3256 341.734 84.3256ZM338.396 73.1364V77.1712H340.865C341.84 77.1712 342.584 76.9911 343.096 76.6309C343.615 76.2707 343.874 75.7507 343.874 75.071C343.874 74.4494 343.657 73.973 343.224 73.6419C342.791 73.3049 342.176 73.1364 341.377 73.1364H338.396ZM338.396 82.94H341.487C342.481 82.94 343.233 82.7512 343.746 82.3736C344.258 81.996 344.514 81.4441 344.514 80.7179C344.514 79.2539 343.453 78.5219 341.331 78.5219H338.396V82.94Z" fill="white"/>
<path d="M356.832 84.3256L355.506 80.7266H350.257L348.931 84.3256H347.202L352.068 71.7509H353.696L358.561 84.3256H356.832ZM352.854 73.6593L350.742 79.3933H355.022L352.909 73.6593H352.854Z" fill="white"/>
<path d="M360.253 84.3256V71.7509H361.899V82.9139H366.673V71.7509H368.319V82.9139H373.093V71.7509H374.739V84.3256H360.253Z" fill="white"/>
<path d="M385.658 82.9139V84.3256H377.482V71.7509H385.658V73.1626H379.128V77.1973H385.32V78.5916H379.128V82.9139H385.658Z" fill="white"/>
<path d="M389.673 84.3256H388.018V71.7509H395.846V73.18H389.673V84.3256Z" fill="white"/>
<path d="M398.032 73.2933C399.123 72.1256 400.604 71.5417 402.476 71.5417C404.348 71.5417 405.829 72.1256 406.921 73.2933C408.012 74.461 408.558 76.0441 408.558 78.0426C408.558 80.0411 408.012 81.6242 406.921 82.7919C405.829 83.9538 404.348 84.5347 402.476 84.5347C400.604 84.5347 399.123 83.9538 398.032 82.7919C396.94 81.6242 396.395 80.0411 396.395 78.0426C396.395 76.0441 396.94 74.461 398.032 73.2933ZM405.677 74.3564C404.89 73.4444 403.824 72.9883 402.476 72.9883C401.129 72.9883 400.059 73.4444 399.266 74.3564C398.48 75.2627 398.086 76.4914 398.086 78.0426C398.086 79.5879 398.48 80.8166 399.266 81.7287C400.059 82.635 401.129 83.0882 402.476 83.0882C403.824 83.0882 404.89 82.635 405.677 81.7287C406.47 80.8166 406.866 79.5879 406.866 78.0426C406.866 76.4914 406.47 75.2627 405.677 74.3564Z" fill="white"/>
<path d="M415.929 84.4127C415.6 84.4127 415.356 84.375 415.197 84.2994V82.8877C415.392 82.9342 415.636 82.9574 415.929 82.9574C416.423 82.9574 416.84 82.8529 417.182 82.6437C417.523 82.4346 417.825 82.1005 418.087 81.6416L413.578 71.7509H415.334L418.874 79.8987H419.02L422.477 71.7509H424.187L420.145 80.7266C419.517 82.1209 418.898 83.0852 418.288 83.6197C417.685 84.1484 416.898 84.4127 415.929 84.4127Z" fill="white"/>
<path d="M435.82 84.6219C434.052 84.6219 432.643 84.0845 431.595 83.0097C430.546 81.9292 429.97 80.4593 429.866 78.6003H427.433V84.3256H425.787V71.7509H427.433V77.1886H429.884C430.037 75.4109 430.637 74.0108 431.686 72.9883C432.741 71.9658 434.119 71.4546 435.82 71.4546C437.661 71.4546 439.112 72.0472 440.173 73.2323C441.234 74.4116 441.764 76.0122 441.764 78.0339C441.764 80.0556 441.234 81.659 440.173 82.8442C439.118 84.0293 437.667 84.6219 435.82 84.6219ZM438.929 74.2867C438.173 73.363 437.137 72.9012 435.82 72.9012C434.503 72.9012 433.46 73.363 432.692 74.2867C431.924 75.2104 431.54 76.4595 431.54 78.0339C431.54 79.6082 431.918 80.8602 432.674 81.7897C433.436 82.7134 434.484 83.1753 435.82 83.1753C437.137 83.1753 438.173 82.7105 438.929 81.781C439.691 80.8515 440.072 79.6024 440.072 78.0339C440.072 76.4537 439.691 75.2046 438.929 74.2867Z" fill="white"/>
<path d="M447.891 84.3256H446.245V73.1626H442.084V71.7509H452.052V73.1626H447.891V84.3256Z" fill="white"/>
<path d="M460.905 84.3256L459.579 80.7266H454.329L453.003 84.3256H451.275L456.14 71.7509H457.768L462.633 84.3256H460.905ZM456.927 73.6593L454.814 79.3933H459.094L456.982 73.6593H456.927Z" fill="white"/>
</svg>
