<svg width="300" height="73" viewBox="0 0 300 73" fill="none" xmlns="http://www.w3.org/2000/svg">
<path fill-rule="evenodd" clip-rule="evenodd" d="M42.3252 7.96774L34.2893 0.000199505L34.2889 0.000554558L34.2887 0.000354893L34.0376 0.249734L18.204 15.9485L26.24 23.916L34.2758 15.9486L42.3116 23.9287L50.3478 15.9482L42.3184 7.97447L42.3252 7.96774Z" fill="#B5C830"/>
<path fill-rule="evenodd" clip-rule="evenodd" d="M60.541 42.0316L68.5772 34.0512L68.577 34.0509L68.5779 34.05L60.5416 26.0696L60.5407 26.0705L52.5047 18.0903L44.4684 26.0707L52.5044 34.0509L44.469 42.0304L52.5053 50.0109L60.5407 42.0313L60.541 42.0316Z" fill="#B5C830"/>
<path fill-rule="evenodd" clip-rule="evenodd" d="M26.2526 60.1203L34.2888 68.1008L34.2892 68.1004L34.2895 68.1006L42.3257 60.1201L42.3254 60.1198L50.3612 52.1398L42.325 44.1592L34.2892 52.1393L26.2533 44.1591L18.2171 52.1396L26.2531 60.1198L26.2526 60.1203Z" fill="#B5C830"/>
<path fill-rule="evenodd" clip-rule="evenodd" d="M1.53048 32.5318L0 34.0505L0.000493971 34.051L0.00840805 34.0589L8.03711 42.0311L8.03968 42.0286L16.0784 50.0056L24.1176 42.0281L16.0763 34.0485L24.1103 26.0709L16.0737 18.0908L1.53048 32.5318Z" fill="#B5C830"/>
<path d="M40.5379 69.9793L41.2508 69.2676C41.3099 69.3625 41.36 69.469 41.4011 69.5869C41.4448 69.7023 41.473 69.8511 41.4859 70.0332C41.5013 70.2127 41.4884 70.3974 41.4473 70.5872C41.4062 70.7718 41.3163 70.9821 41.1776 71.2181C41.044 71.454 40.8642 71.6849 40.6381 71.9106C40.1397 72.4081 39.6169 72.6787 39.0696 72.7223C38.5199 72.7633 38.0125 72.5517 37.5475 72.0875C37.1236 71.6644 36.9206 71.1771 36.9386 70.6256C36.9566 70.0691 37.2366 69.5203 37.7787 68.9791C38.1846 68.5739 38.6072 68.3187 39.0465 68.2135C39.4833 68.1058 39.8635 68.1238 40.1872 68.2674L39.5359 69.1022C39.0504 69.0022 38.6316 69.1278 38.2797 69.4792C38.1075 69.6511 37.9855 69.8319 37.9136 70.0217C37.8416 70.2114 37.8185 70.391 37.8442 70.5602C37.8725 70.727 37.9213 70.8808 37.9906 71.0219C38.0626 71.1604 38.1525 71.2835 38.2604 71.3912C38.5276 71.6579 38.8436 71.7913 39.2084 71.7913C39.5758 71.7887 39.9046 71.6426 40.1949 71.3527C40.6085 70.9398 40.7229 70.482 40.5379 69.9793Z" fill="#B5C830"/>
<path d="M41.0927 68.556C40.8383 68.3021 40.6624 68.0341 40.5647 67.752C40.4645 67.4673 40.4388 67.1929 40.4877 66.9287C40.5365 66.6594 40.629 66.403 40.7651 66.1593C40.9039 65.9131 41.0824 65.681 41.3008 65.463C41.5243 65.2399 41.7555 65.0578 41.9944 64.9167C42.2359 64.7731 42.4903 64.6731 42.7574 64.6166C43.0272 64.5576 43.3047 64.5756 43.5898 64.6705C43.875 64.7654 44.146 64.9411 44.4029 65.1975C44.8602 65.6541 45.076 66.1593 45.0503 66.7133C45.0247 67.2621 44.7472 67.8007 44.218 68.3291C43.6887 68.8574 43.1454 69.1382 42.5879 69.1716C42.033 69.2023 41.5346 68.9972 41.0927 68.556ZM41.8133 67.8751C41.9289 67.9905 42.0587 68.0841 42.2025 68.1559C42.3438 68.2252 42.498 68.2714 42.665 68.2944C42.8319 68.3124 43.0079 68.2855 43.1929 68.2136C43.3779 68.1367 43.5539 68.0149 43.7208 67.8482C43.8904 67.6789 44.0112 67.5045 44.0831 67.325C44.1525 67.1429 44.182 66.9826 44.1717 66.8441C44.1614 66.7005 44.1268 66.5607 44.0677 66.4248C44.0112 66.2863 43.9559 66.1824 43.902 66.1131C43.848 66.0388 43.7941 65.9746 43.7401 65.9208C43.4781 65.6592 43.1672 65.5207 42.8075 65.5053C42.4479 65.4848 42.1139 65.6284 41.8056 65.9362C41.4922 66.2491 41.3496 66.5863 41.3778 66.948C41.4061 67.3045 41.5513 67.6135 41.8133 67.8751Z" fill="#B5C830"/>
<path d="M49.9964 62.3834L49.349 63.0297L47.2719 60.9254L48.4897 63.8876L47.8692 64.507L44.8942 63.299C46.2302 64.6122 46.9328 65.3034 47.0022 65.3726L46.3548 66.0189L43.6341 63.3029L44.6206 62.318L47.4608 63.4683L46.3008 60.6407L47.2758 59.6674L49.9964 62.3834Z" fill="#B5C830"/>
<path d="M48.0485 58.896L49.7402 57.2072C49.9534 56.9943 50.1577 56.8391 50.3529 56.7417C50.5482 56.6391 50.764 56.6186 51.0003 56.6801C51.2084 56.7288 51.4101 56.8507 51.6053 57.0456C51.8366 57.2764 51.9612 57.5213 51.9791 57.7804C51.9946 58.0061 51.9522 58.2048 51.852 58.3767C51.7518 58.5485 51.5886 58.7473 51.3626 58.973L50.4146 59.9194L51.4396 60.9427L50.7691 61.6121L48.0485 58.896ZM49.1891 58.696L49.9367 59.4423L50.773 58.6075C50.9322 58.4485 51.0299 58.3254 51.0658 58.2382C51.1403 58.0612 51.0941 57.8894 50.9271 57.7227C50.8269 57.6226 50.71 57.5624 50.5764 57.5419C50.4428 57.5213 50.3131 57.5739 50.1872 57.6996L49.1891 58.696Z" fill="#B5C830"/>
<path d="M56.1005 56.2897L53.9078 58.4787L51.1871 55.7627L51.8692 55.0817L54.0889 57.2977L55.5995 55.7896L56.1005 56.2897Z" fill="#B5C830"/>
<path d="M59.087 53.3083L56.4743 55.9166L53.7536 53.2006L56.2893 50.6692L56.7787 51.1578L54.9251 53.0082L55.5378 53.6199L57.3298 51.831L57.8153 52.3157L56.0234 54.1046L56.6708 54.7509L58.6015 52.8235L59.087 53.3083Z" fill="#B5C830"/>
<path d="M62.6766 49.7248L61.8134 50.5866L59.979 50.3865L60.1794 52.2177L59.3124 53.0833L59.1313 50.4173L56.7497 50.2095L57.6014 49.3593L59.1582 49.5671L58.9617 48.0013L59.7979 47.1665L60.0099 49.5402L62.6766 49.7248Z" fill="#B5C830"/>
<path d="M60.4062 45.8777L62.1577 44.1414C62.3785 43.9225 62.5899 43.763 62.792 43.6628C62.9942 43.5573 63.2176 43.5363 63.4623 43.5995C63.6777 43.6496 63.8865 43.7749 64.0887 43.9753C64.328 44.2126 64.457 44.4644 64.4757 44.7307C64.4916 44.9627 64.4477 45.1671 64.344 45.3437C64.2403 45.5204 64.0714 45.7247 63.8373 45.9568L62.8559 46.9297L63.9171 47.9818L63.2229 48.67L60.4062 45.8777ZM61.5872 45.672L62.3612 46.4393L63.2269 45.581C63.3918 45.4176 63.4929 45.291 63.5301 45.2013C63.6073 45.0194 63.5594 44.8428 63.3865 44.6714C63.2828 44.5685 63.1617 44.5066 63.0234 44.4855C62.8851 44.4644 62.7508 44.5184 62.6205 44.6476L61.5872 45.672Z" fill="#262525"/>
<path d="M69.5643 42.3834L68.7305 43.21L66.8474 42.8304L66.0415 43.6293L67.1745 44.7525L66.4724 45.4486L63.6557 42.6563L65.5947 40.7342C65.7941 40.5364 65.967 40.3993 66.1133 40.3228C66.3447 40.1989 66.5814 40.1594 66.8235 40.2042C67.0628 40.2464 67.2769 40.3611 67.4658 40.5483C67.6014 40.6827 67.6998 40.8304 67.761 40.9912C67.8355 41.1811 67.8488 41.3604 67.8009 41.5291C67.7557 41.6952 67.6653 41.8745 67.5296 42.067L69.5643 42.3834ZM64.8526 42.4507L65.5428 43.1349L66.7038 41.984C66.9644 41.7256 66.983 41.4856 66.7596 41.2641C66.5229 41.0295 66.2649 41.0506 65.9856 41.3274L64.8526 42.4507Z" fill="#262525"/>
<path d="M68.4193 40.7262C68.156 40.4652 67.9738 40.1897 67.8727 39.8996C67.769 39.607 67.7424 39.3248 67.7929 39.0532C67.8435 38.7764 67.9392 38.5127 68.0802 38.2622C68.2238 38.0091 68.4087 37.7705 68.6347 37.5463C68.8661 37.317 69.1055 37.1297 69.3529 36.9847C69.6029 36.8371 69.8662 36.7342 70.1428 36.6762C70.4221 36.6156 70.7093 36.634 71.0046 36.7316C71.2998 36.8292 71.5804 37.0098 71.8464 37.2734C72.3198 37.7428 72.5432 38.2622 72.5166 38.8318C72.49 39.396 72.2028 39.9497 71.6549 40.4929C71.107 41.0361 70.5444 41.3248 69.9673 41.3591C69.3928 41.3907 68.8768 41.1798 68.4193 40.7262ZM69.1654 40.0262C69.285 40.1448 69.4194 40.2411 69.5683 40.3149C69.7146 40.3861 69.8742 40.4336 70.0471 40.4573C70.2199 40.4758 70.4021 40.4481 70.5936 40.3742C70.7851 40.2951 70.9673 40.1699 71.1402 39.9985C71.3158 39.8245 71.4408 39.6452 71.5152 39.4606C71.5871 39.2734 71.6176 39.1086 71.607 38.9662C71.5964 38.8186 71.5605 38.6749 71.4993 38.5351C71.4408 38.3927 71.3836 38.286 71.3277 38.2148C71.2719 38.1383 71.216 38.0724 71.1602 38.017C70.8889 37.7481 70.567 37.6057 70.1947 37.5899C69.8223 37.5688 69.4765 37.7164 69.1574 38.0328C68.8329 38.3545 68.6853 38.7012 68.7145 39.073C68.7438 39.4395 68.8941 39.7572 69.1654 40.0262Z" fill="#262525"/>
<path d="M103.185 37.2558H98.5283L91.206 27.714V37.2558H87.1641V16.8921H91.206V25.8812L98.2354 16.8921H102.892L95.3065 26.7831L103.185 37.2558Z" fill="#B5C830"/>
<path d="M120.69 34.6085C118.621 36.6449 116.102 37.6631 113.134 37.6631C110.166 37.6631 107.647 36.6449 105.577 34.6085C103.527 32.5528 102.502 30.0412 102.502 27.074C102.502 24.1067 103.527 21.6049 105.577 19.5685C107.647 17.5127 110.166 16.4849 113.134 16.4849C116.102 16.4849 118.621 17.5127 120.69 19.5685C122.76 21.6049 123.795 24.1067 123.795 27.074C123.795 30.0412 122.76 32.5528 120.69 34.6085ZM108.418 31.874C109.687 33.1152 111.259 33.7358 113.134 33.7358C115.008 33.7358 116.58 33.1152 117.849 31.874C119.119 30.6134 119.753 29.0134 119.753 27.074C119.753 25.1346 119.119 23.5346 117.849 22.274C116.58 21.0134 115.008 20.383 113.134 20.383C111.259 20.383 109.687 21.0134 108.418 22.274C107.149 23.5346 106.514 25.1346 106.514 27.074C106.514 29.0134 107.149 30.6134 108.418 31.874Z" fill="#B5C830"/>
<path d="M146.699 16.8921V37.2558H142.687V24.0485L136.917 33.5031H136.448L130.678 24.0776V37.2558H126.636V16.8921H130.795L136.682 26.5212L142.54 16.8921H146.699Z" fill="#B5C830"/>
<path d="M165.838 16.8921V37.2558H161.796V20.7321H154.561V37.2558H150.519V16.8921H165.838Z" fill="#B5C830"/>
<path d="M168.073 37.2558V33.5321C169.284 33.7067 170.192 33.4643 170.797 32.8049C171.402 32.1455 171.705 30.8558 171.705 28.9358V16.8921H185.647V37.2558H181.634V20.7321H175.718V28.8194C175.718 30.5843 175.503 32.0679 175.073 33.2703C174.644 34.4728 174.048 35.3649 173.287 35.9467C172.545 36.5285 171.744 36.9164 170.885 37.1103C170.045 37.3043 169.108 37.3528 168.073 37.2558Z" fill="#B5C830"/>
<path d="M193.49 33.4158H202.13V37.2558H189.448V16.8921H201.984V20.7321H193.49V25.0667H201.251V28.8485H193.49V33.4158Z" fill="#B5C830"/>
<path d="M221 37.2558H216.343L209.021 27.714V37.2558H204.979V16.8921H209.021V25.8812L216.051 16.8921H220.708L213.122 26.7831L221 37.2558Z" fill="#B5C830"/>
<path d="M230.978 37.6631C227.893 37.6631 225.345 36.6449 223.334 34.6085C221.323 32.5721 220.317 30.0606 220.317 27.074C220.317 24.0679 221.323 21.5564 223.334 19.5394C225.345 17.503 227.893 16.4849 230.978 16.4849C232.833 16.4849 234.542 16.9212 236.104 17.794C237.686 18.6473 238.916 19.8109 239.794 21.2849L236.309 23.2921C235.801 22.3806 235.079 21.6727 234.142 21.1685C233.204 20.6449 232.15 20.383 230.978 20.383C228.987 20.383 227.376 21.0037 226.146 22.2449C224.935 23.4861 224.33 25.0958 224.33 27.074C224.33 29.0328 224.935 30.6328 226.146 31.874C227.376 33.1152 228.987 33.7358 230.978 33.7358C232.15 33.7358 233.204 33.4837 234.142 32.9794C235.098 32.4558 235.821 31.7479 236.309 30.8558L239.794 32.8631C238.916 34.337 237.695 35.5103 236.133 36.3831C234.571 37.2364 232.853 37.6631 230.978 37.6631Z" fill="#B5C830"/>
<path d="M258.643 16.8921V37.2558H254.601V20.7321H247.366V37.2558H243.324V16.8921H258.643Z" fill="#262525"/>
<path d="M270.104 16.8921C272.076 16.8921 273.736 17.5515 275.083 18.8703C276.431 20.1891 277.104 21.8085 277.104 23.7285C277.104 25.6485 276.431 27.2679 275.083 28.5867C273.736 29.9055 272.076 30.5649 270.104 30.5649H266.501V37.2558H262.46V16.8921H270.104ZM270.104 26.8121C270.963 26.8121 271.676 26.5212 272.242 25.9394C272.808 25.3382 273.092 24.6012 273.092 23.7285C273.092 22.8364 272.808 22.0994 272.242 21.5176C271.676 20.9358 270.963 20.6449 270.104 20.6449H266.501V26.8121H270.104Z" fill="#262525"/>
<path d="M296.844 34.6085C294.774 36.6449 292.255 37.6631 289.287 37.6631C286.319 37.6631 283.801 36.6449 281.731 34.6085C279.68 32.5528 278.655 30.0412 278.655 27.074C278.655 24.1067 279.68 21.6049 281.731 19.5685C283.801 17.5127 286.319 16.4849 289.287 16.4849C292.255 16.4849 294.774 17.5127 296.844 19.5685C298.914 21.6049 299.949 24.1067 299.949 27.074C299.949 30.0412 298.914 32.5528 296.844 34.6085ZM284.572 31.874C285.841 33.1152 287.413 33.7358 289.287 33.7358C291.162 33.7358 292.734 33.1152 294.003 31.874C295.272 30.6134 295.907 29.0134 295.907 27.074C295.907 25.1346 295.272 23.5346 294.003 22.274C292.734 21.0134 291.162 20.383 289.287 20.383C287.413 20.383 285.841 21.0134 284.572 22.274C283.303 23.5346 282.668 25.1346 282.668 27.074C282.668 29.0134 283.303 30.6134 284.572 31.874Z" fill="#262525"/>
<path d="M94.1469 55.891H93.0558V52.0963H88.2551V55.891H87.1641V47.5565H88.2551V51.1606H93.0558V47.5565H94.1469V55.891Z" fill="#7E7E7E"/>
<path d="M96.7108 48.5788C97.4342 47.8048 98.4161 47.4179 99.6567 47.4179C100.897 47.4179 101.879 47.8048 102.603 48.5788C103.326 49.3528 103.688 50.402 103.688 51.7266C103.688 53.0512 103.326 54.1005 102.603 54.8745C101.879 55.6446 100.897 56.0296 99.6567 56.0296C98.4161 56.0296 97.4342 55.6446 96.7108 54.8745C95.9875 54.1005 95.6258 53.0512 95.6258 51.7266C95.6258 50.402 95.9875 49.3528 96.7108 48.5788ZM101.778 49.2835C101.257 48.6789 100.55 48.3767 99.6567 48.3767C98.7637 48.3767 98.0545 48.6789 97.5291 49.2835C97.0079 49.8841 96.7472 50.6985 96.7472 51.7266C96.7472 52.7509 97.0079 53.5653 97.5291 54.1698C98.0545 54.7705 98.7637 55.0708 99.6567 55.0708C100.55 55.0708 101.257 54.7705 101.778 54.1698C102.304 53.5653 102.566 52.7509 102.566 51.7266C102.566 50.6985 102.304 49.8841 101.778 49.2835Z" fill="#7E7E7E"/>
<path d="M108.47 55.891H105.167V47.5565H108.482C109.23 47.5565 109.834 47.7471 110.295 48.1283C110.759 48.5095 110.992 49.012 110.992 49.6358C110.992 50.0709 110.844 50.4656 110.549 50.8198C110.258 51.1702 109.903 51.382 109.482 51.4552V51.5014C110.076 51.5745 110.549 51.7959 110.901 52.1656C111.256 52.5352 111.434 52.9973 111.434 53.5518C111.434 54.2873 111.171 54.861 110.646 55.273C110.125 55.685 109.399 55.891 108.47 55.891ZM106.258 48.4748V51.1491H107.894C108.541 51.1491 109.034 51.0297 109.373 50.7909C109.717 50.5522 109.888 50.2076 109.888 49.7571C109.888 49.3451 109.745 49.0293 109.458 48.8098C109.171 48.5865 108.763 48.4748 108.234 48.4748H106.258ZM106.258 54.9726H108.306C108.965 54.9726 109.464 54.8475 109.804 54.5972C110.143 54.3469 110.313 53.9811 110.313 53.4998C110.313 52.5295 109.61 52.0443 108.203 52.0443H106.258V54.9726Z" fill="#7E7E7E"/>
<path d="M112.792 55.891V47.5565H113.883V50.6466H116.023C116.847 50.6466 117.522 50.893 118.047 51.3859C118.572 51.8749 118.835 52.5044 118.835 53.2746C118.835 54.0447 118.574 54.6742 118.053 55.1633C117.532 55.6484 116.859 55.891 116.035 55.891H112.792ZM113.883 54.9553H115.75C116.376 54.9553 116.859 54.809 117.199 54.5164C117.542 54.2237 117.714 53.8098 117.714 53.2746C117.714 52.7355 117.542 52.3196 117.199 52.027C116.859 51.7305 116.376 51.5822 115.75 51.5822H113.883V54.9553ZM121.096 55.891H120.005V47.5565H121.096V55.891Z" fill="#7E7E7E"/>
<path d="M128.333 54.9553V55.891H122.914V47.5565H128.333V48.4922H124.006V51.1664H128.109V52.0905H124.006V54.9553H128.333Z" fill="#7E7E7E"/>
<path d="M135.747 55.891H134.656V48.4922H131.898V47.5565H138.505V48.4922H135.747V55.891Z" fill="#7E7E7E"/>
<path d="M145.196 54.9553V55.891H139.777V47.5565H145.196V48.4922H140.869V51.1664H144.972V52.0905H140.869V54.9553H145.196Z" fill="#7E7E7E"/>
<path d="M146.184 55.891L149.161 51.7151V51.6747L146.221 47.5565H147.536L149.87 50.9065H149.912L152.276 47.5565H153.519L150.5 51.7266V51.7613L153.452 55.891H152.143L149.821 52.5699H149.779L147.421 55.891H146.184Z" fill="#7E7E7E"/>
<path d="M161.744 55.891H160.653V52.0963H155.852V55.891H154.761V47.5565H155.852V51.1606H160.653V47.5565H161.744V55.891Z" fill="#7E7E7E"/>
<path d="M164.308 48.5788C165.031 47.8048 166.013 47.4179 167.254 47.4179C168.495 47.4179 169.477 47.8048 170.2 48.5788C170.923 49.3528 171.285 50.402 171.285 51.7266C171.285 53.0512 170.923 54.1005 170.2 54.8745C169.477 55.6446 168.495 56.0296 167.254 56.0296C166.013 56.0296 165.031 55.6446 164.308 54.8745C163.585 54.1005 163.223 53.0512 163.223 51.7266C163.223 50.402 163.585 49.3528 164.308 48.5788ZM169.376 49.2835C168.854 48.6789 168.147 48.3767 167.254 48.3767C166.361 48.3767 165.652 48.6789 165.126 49.2835C164.605 49.8841 164.345 50.6985 164.345 51.7266C164.345 52.7509 164.605 53.5653 165.126 54.1698C165.652 54.7705 166.361 55.0708 167.254 55.0708C168.147 55.0708 168.854 54.7705 169.376 54.1698C169.901 53.5653 170.163 52.7509 170.163 51.7266C170.163 50.6985 169.901 49.8841 169.376 49.2835Z" fill="#7E7E7E"/>
<path d="M178.892 55.891H177.801V48.4922H174.607L174.328 52.7721C174.255 53.881 174.041 54.6877 173.685 55.1921C173.334 55.6927 172.804 55.943 172.097 55.943C171.935 55.943 171.794 55.9237 171.673 55.8852V54.9553C171.762 54.9784 171.871 54.99 172 54.99C172.416 54.99 172.723 54.8148 172.921 54.4644C173.124 54.114 173.249 53.5364 173.297 52.7316L173.612 47.5565H178.892V55.891Z" fill="#7E7E7E"/>
<path d="M181.462 48.5788C182.185 47.8048 183.167 47.4179 184.408 47.4179C185.648 47.4179 186.63 47.8048 187.354 48.5788C188.077 49.3528 188.439 50.402 188.439 51.7266C188.439 53.0512 188.077 54.1005 187.354 54.8745C186.63 55.6446 185.648 56.0296 184.408 56.0296C183.167 56.0296 182.185 55.6446 181.462 54.8745C180.739 54.1005 180.377 53.0512 180.377 51.7266C180.377 50.402 180.739 49.3528 181.462 48.5788ZM186.529 49.2835C186.008 48.6789 185.301 48.3767 184.408 48.3767C183.515 48.3767 182.806 48.6789 182.28 49.2835C181.759 49.8841 181.498 50.6985 181.498 51.7266C181.498 52.7509 181.759 53.5653 182.28 54.1698C182.806 54.7705 183.515 55.0708 184.408 55.0708C185.301 55.0708 186.008 54.7705 186.529 54.1698C187.055 53.5653 187.317 52.7509 187.317 51.7266C187.317 50.6985 187.055 49.8841 186.529 49.2835Z" fill="#7E7E7E"/>
<path d="M191.015 55.891H189.918V47.5565H195.106V48.5037H191.015V55.891Z" fill="#7E7E7E"/>
<path d="M202.319 55.891V49.2604H202.223L197.495 55.891H196.416V47.5565H197.495V54.2102H197.592L202.319 47.5565H203.398V55.891H202.319Z" fill="#7E7E7E"/>
<path d="M211.121 55.891V49.2604H211.024L206.296 55.891H205.217V47.5565H206.296V54.2102H206.393L211.121 47.5565H212.2V55.891H211.121Z" fill="#7E7E7E"/>
<path d="M219.867 55.891H216.564V47.5565H219.88C220.627 47.5565 221.231 47.7471 221.692 48.1283C222.157 48.5095 222.389 49.012 222.389 49.6358C222.389 50.0709 222.241 50.4656 221.946 50.8198C221.656 51.1702 221.3 51.382 220.88 51.4552V51.5014C221.474 51.5745 221.946 51.7959 222.298 52.1656C222.654 52.5352 222.831 52.9973 222.831 53.5518C222.831 54.2873 222.569 54.861 222.043 55.273C221.522 55.685 220.797 55.891 219.867 55.891ZM217.655 48.4748V51.1491H219.292C219.938 51.1491 220.431 51.0297 220.771 50.7909C221.114 50.5522 221.286 50.2076 221.286 49.7571C221.286 49.3451 221.142 49.0293 220.855 48.8098C220.568 48.5865 220.16 48.4748 219.631 48.4748H217.655ZM217.655 54.9726H219.704C220.362 54.9726 220.861 54.8475 221.201 54.5972C221.54 54.3469 221.71 53.9811 221.71 53.4998C221.71 52.5295 221.007 52.0443 219.601 52.0443H217.655V54.9726Z" fill="#7E7E7E"/>
<path d="M229.875 55.891L228.996 53.5056H225.517L224.638 55.891H223.492L226.717 47.5565H227.796L231.02 55.891H229.875ZM227.238 48.8214L225.838 52.6219H228.675L227.274 48.8214H227.238Z" fill="#7E7E7E"/>
<path d="M232.142 55.891V47.5565H233.233V54.9553H236.397V47.5565H237.488V54.9553H240.652V47.5565H241.743V55.891H232.142Z" fill="#7E7E7E"/>
<path d="M248.981 54.9553V55.891H243.562V47.5565H248.981V48.4922H244.653V51.1664H248.756V52.0905H244.653V54.9553H248.981Z" fill="#7E7E7E"/>
<path d="M251.642 55.891H250.544V47.5565H255.733V48.5037H251.642V55.891Z" fill="#7E7E7E"/>
<path d="M257.182 48.5788C257.905 47.8048 258.887 47.4179 260.128 47.4179C261.368 47.4179 262.35 47.8048 263.073 48.5788C263.797 49.3528 264.158 50.402 264.158 51.7266C264.158 53.0512 263.797 54.1005 263.073 54.8745C262.35 55.6446 261.368 56.0296 260.128 56.0296C258.887 56.0296 257.905 55.6446 257.182 54.8745C256.458 54.1005 256.097 53.0512 256.097 51.7266C256.097 50.402 256.458 49.3528 257.182 48.5788ZM262.249 49.2835C261.728 48.6789 261.021 48.3767 260.128 48.3767C259.234 48.3767 258.525 48.6789 258 49.2835C257.479 49.8841 257.218 50.6985 257.218 51.7266C257.218 52.7509 257.479 53.5653 258 54.1698C258.525 54.7705 259.234 55.0708 260.128 55.0708C261.021 55.0708 261.728 54.7705 262.249 54.1698C262.774 53.5653 263.037 52.7509 263.037 51.7266C263.037 50.6985 262.774 49.8841 262.249 49.2835Z" fill="#7E7E7E"/>
<path d="M269.044 55.9488C268.826 55.9488 268.664 55.9237 268.559 55.8737V54.938C268.688 54.9688 268.85 54.9842 269.044 54.9842C269.371 54.9842 269.648 54.9149 269.874 54.7763C270.101 54.6377 270.301 54.4162 270.474 54.1121L267.486 47.5565H268.65L270.996 52.9569H271.093L273.384 47.5565H274.517L271.838 53.5056C271.422 54.4297 271.012 55.0689 270.608 55.4232C270.208 55.7736 269.686 55.9488 269.044 55.9488Z" fill="#7E7E7E"/>
<path d="M282.228 56.0874C281.056 56.0874 280.122 55.7312 279.427 55.0189C278.732 54.3027 278.35 53.3285 278.282 52.0963H276.669V55.891H275.578V47.5565H276.669V51.1606H278.294C278.395 49.9823 278.793 49.0544 279.488 48.3767C280.187 47.699 281.1 47.3601 282.228 47.3601C283.448 47.3601 284.41 47.7529 285.113 48.5384C285.816 49.32 286.168 50.3809 286.168 51.7209C286.168 53.0609 285.816 54.1236 285.113 54.9091C284.414 55.6946 283.452 56.0874 282.228 56.0874ZM284.288 49.2373C283.787 48.625 283.1 48.3189 282.228 48.3189C281.355 48.3189 280.664 48.625 280.155 49.2373C279.645 49.8495 279.391 50.6774 279.391 51.7209C279.391 52.7644 279.641 53.5942 280.142 54.2102C280.648 54.8225 281.343 55.1286 282.228 55.1286C283.1 55.1286 283.787 54.8206 284.288 54.2045C284.794 53.5884 285.046 52.7605 285.046 51.7209C285.046 50.6735 284.794 49.8456 284.288 49.2373Z" fill="#7E7E7E"/>
<path d="M290.229 55.891H289.138V48.4922H286.38V47.5565H292.987V48.4922H290.229V55.891Z" fill="#7E7E7E"/>
<path d="M298.854 55.891L297.975 53.5056H294.496L293.617 55.891H292.471L295.696 47.5565H296.775L300 55.891H298.854ZM296.217 48.8214L294.817 52.6219H297.654L296.254 48.8214H296.217Z" fill="#7E7E7E"/>
</svg>
