<svg width="228" height="40" viewBox="0 0 228 40" fill="none" xmlns="http://www.w3.org/2000/svg">
<path fill-rule="evenodd" clip-rule="evenodd" d="M27.3451 4.38256L22.9127 0.000418759L22.9124 0.000698555L22.9119 0.00016121L22.234 0.671436L14.0406 8.77195L18.473 13.1541L22.9052 8.77211L27.337 13.1607L31.7696 8.77146L27.3413 4.38635L27.3451 4.38256Z" fill="#B5C830"/>
<path fill-rule="evenodd" clip-rule="evenodd" d="M41.8239 18.7277L37.3913 14.3385L37.3909 14.3388L32.9585 9.94973L28.5259 14.339L32.9584 18.7281L28.5262 23.1169L32.9588 27.5061L37.3909 23.1173L37.3911 23.1174L41.8236 18.7282L41.8235 18.7281L41.8239 18.7277Z" fill="#B5C830"/>
<path fill-rule="evenodd" clip-rule="evenodd" d="M18.4796 33.066L22.9121 37.4553L22.9125 37.455L22.9125 37.455L27.345 33.0657L27.345 33.0657L31.7771 28.6768L27.3446 24.2875L22.9125 28.6764L18.48 24.2872L14.0475 28.6764L18.48 33.0657L18.4796 33.066Z" fill="#B5C830"/>
<path fill-rule="evenodd" clip-rule="evenodd" d="M4.25382 18.9795L8.43253 23.117L8.43387 23.1157L12.8678 27.5031L17.302 23.1155L12.8666 18.7266L17.298 14.3389L12.8653 9.94987L4.61908 18.1148L3.99951 18.7278L4.25382 18.9795Z" fill="#B5C830"/>
<path d="M26.3589 38.4884L26.7521 38.097C26.7847 38.1492 26.8123 38.2077 26.835 38.2726C26.8591 38.3361 26.8747 38.4179 26.8818 38.5181C26.8903 38.6168 26.8832 38.7184 26.8605 38.8228C26.8379 38.9243 26.7883 39.04 26.7117 39.1698C26.6381 39.2995 26.5389 39.4265 26.4142 39.5506C26.1393 39.8243 25.8509 39.9731 25.5491 39.9971C25.2458 40.0196 24.966 39.9033 24.7095 39.6479C24.4757 39.4152 24.3637 39.1472 24.3737 38.8439C24.3836 38.5378 24.538 38.2359 24.837 37.9383C25.0609 37.7154 25.294 37.5751 25.5363 37.5172C25.7772 37.458 25.9869 37.4679 26.1655 37.5469L25.8063 38.006C25.5384 37.951 25.3075 38.0201 25.1133 38.2134C25.0184 38.3079 24.9511 38.4073 24.9114 38.5117C24.8717 38.6161 24.859 38.7148 24.8732 38.8079C24.8887 38.8996 24.9157 38.9843 24.9539 39.0618C24.9936 39.138 25.0432 39.2057 25.1027 39.265C25.2501 39.4117 25.4244 39.485 25.6256 39.485C25.8282 39.4836 26.0096 39.4032 26.1697 39.2438C26.3979 39.0167 26.4609 38.7649 26.3589 38.4884Z" fill="#B5C830"/>
<path d="M26.6649 37.7056C26.5246 37.566 26.4276 37.4186 26.3737 37.2634C26.3184 37.1068 26.3043 36.9559 26.3312 36.8106C26.3581 36.6625 26.4091 36.5214 26.4842 36.3874C26.5608 36.252 26.6592 36.1244 26.7797 36.0045C26.903 35.8817 27.0305 35.7816 27.1623 35.704C27.2955 35.625 27.4358 35.57 27.5831 35.539C27.7319 35.5065 27.885 35.5164 28.0423 35.5686C28.1995 35.6208 28.349 35.7174 28.4907 35.8585C28.743 36.1095 28.862 36.3874 28.8478 36.6921C28.8337 36.994 28.6806 37.2902 28.3887 37.5808C28.0968 37.8714 27.7971 38.0258 27.4896 38.0442C27.1835 38.0611 26.9086 37.9483 26.6649 37.7056ZM27.0624 37.3311C27.1261 37.3946 27.1977 37.4461 27.2771 37.4856C27.355 37.5237 27.44 37.5491 27.5321 37.5617C27.6242 37.5716 27.7213 37.5568 27.8233 37.5173C27.9253 37.475 28.0224 37.408 28.1145 37.3163C28.208 37.2232 28.2746 37.1273 28.3143 37.0285C28.3526 36.9284 28.3689 36.8402 28.3632 36.7641C28.3575 36.6851 28.3384 36.6082 28.3058 36.5334C28.2746 36.4573 28.2442 36.4001 28.2144 36.362C28.1847 36.3211 28.1549 36.2859 28.1251 36.2562C27.9806 36.1124 27.8092 36.0362 27.6108 36.0277C27.4124 36.0164 27.2282 36.0954 27.0581 36.2647C26.8853 36.4368 26.8066 36.6223 26.8222 36.8212C26.8378 37.0173 26.9178 37.1872 27.0624 37.3311Z" fill="#B5C830"/>
<path d="M31.5759 34.3107L31.2188 34.6662L30.0732 33.5088L30.7449 35.138L30.4026 35.4787L28.7617 34.8143C29.4986 35.5365 29.8861 35.9167 29.9244 35.9547L29.5673 36.3102L28.0667 34.8164L28.6108 34.2747L30.1773 34.9074L29.5375 33.3522L30.0753 32.8169L31.5759 34.3107Z" fill="#B5C830"/>
<path d="M30.5015 32.3926L31.4346 31.4638C31.5522 31.3467 31.6649 31.2613 31.7726 31.2077C31.8803 31.1513 31.9993 31.14 32.1297 31.1739C32.2444 31.2007 32.3557 31.2677 32.4634 31.3749C32.5909 31.5018 32.6596 31.6366 32.6695 31.779C32.678 31.9032 32.6547 32.0125 32.5994 32.107C32.5441 32.2015 32.4542 32.3108 32.3295 32.435L31.8066 32.9555L32.372 33.5183L32.0021 33.8865L30.5015 32.3926ZM31.1307 32.2826L31.543 32.6931L32.0042 32.2339C32.0921 32.1465 32.1459 32.0788 32.1658 32.0308C32.2069 31.9335 32.1814 31.839 32.0893 31.7473C32.034 31.6923 31.9695 31.6591 31.8958 31.6478C31.8222 31.6366 31.7506 31.6655 31.6812 31.7346L31.1307 32.2826Z" fill="#B5C830"/>
<path d="M34.9427 30.9592L33.7333 32.1631L32.2327 30.6693L32.6089 30.2948L33.8332 31.5135L34.6664 30.6841L34.9427 30.9592Z" fill="#B5C830"/>
<path d="M36.59 29.3194L35.1489 30.7539L33.6483 29.2601L35.0469 27.8679L35.3168 28.1366L34.2944 29.1543L34.6324 29.4908L35.6208 28.5069L35.8886 28.7735L34.9002 29.7574L35.2573 30.1128L36.3222 29.0528L36.59 29.3194Z" fill="#B5C830"/>
<path d="M38.5699 27.3485L38.0938 27.8224L37.082 27.7124L37.1926 28.7196L36.7143 29.1956L36.6144 27.7293L35.3008 27.6151L35.7706 27.1475L36.6293 27.2617L36.5209 26.4006L36.9821 25.9414L37.099 27.2469L38.5699 27.3485Z" fill="#B5C830"/>
<path d="M37.3184 25.2328L38.2844 24.2778C38.4062 24.1575 38.5228 24.0697 38.6343 24.0146C38.7458 23.9566 38.869 23.945 39.004 23.9798C39.1228 24.0074 39.238 24.0763 39.3495 24.1865C39.4815 24.317 39.5526 24.4555 39.5629 24.602C39.5717 24.7296 39.5475 24.842 39.4903 24.9391C39.4331 25.0363 39.3399 25.1487 39.2108 25.2763L38.6695 25.8114L39.2548 26.3901L38.8719 26.7686L37.3184 25.2328ZM37.9697 25.1197L38.3966 25.5417L38.8741 25.0696C38.9651 24.9797 39.0208 24.9101 39.0414 24.8608C39.0839 24.7608 39.0575 24.6636 38.9622 24.5693C38.905 24.5128 38.8382 24.4787 38.7619 24.4671C38.6856 24.4555 38.6115 24.4852 38.5397 24.5563L37.9697 25.1197Z" fill="#262525"/>
<path d="M42.3697 23.311L41.9097 23.7656L40.8711 23.5568L40.4266 23.9962L41.0515 24.614L40.6642 24.9968L39.1107 23.4611L40.1801 22.4039C40.2901 22.2951 40.3855 22.2197 40.4662 22.1776C40.5938 22.1095 40.7244 22.0877 40.8579 22.1124C40.9899 22.1356 41.108 22.1987 41.2122 22.3016C41.287 22.3756 41.3413 22.4568 41.375 22.5453C41.4161 22.6497 41.4234 22.7483 41.397 22.8411C41.3721 22.9325 41.3222 23.0311 41.2474 23.1369L42.3697 23.311ZM39.7708 23.3479L40.1515 23.7243L40.7919 23.0913C40.9356 22.9491 40.9459 22.8172 40.8227 22.6954C40.6921 22.5663 40.5498 22.5779 40.3958 22.7302L39.7708 23.3479Z" fill="#262525"/>
<path d="M41.7381 22.3995C41.5929 22.2559 41.4924 22.1044 41.4366 21.9449C41.3794 21.7839 41.3647 21.6287 41.3926 21.4794C41.4205 21.3271 41.4733 21.1821 41.5511 21.0443C41.6303 20.9051 41.7322 20.7738 41.8569 20.6506C41.9846 20.5244 42.1166 20.4214 42.253 20.3417C42.3909 20.2605 42.5362 20.2039 42.6887 20.172C42.8428 20.1387 43.0012 20.1488 43.1641 20.2025C43.3269 20.2561 43.4817 20.3555 43.6284 20.5005C43.8895 20.7586 44.0127 21.0443 43.9981 21.3575C43.9834 21.6679 43.825 21.9724 43.5227 22.2712C43.2205 22.5699 42.9103 22.7287 42.5919 22.7476C42.275 22.765 41.9904 22.649 41.7381 22.3995ZM42.1496 22.0145C42.2156 22.0797 42.2897 22.1327 42.3719 22.1733C42.4525 22.2124 42.5406 22.2385 42.6359 22.2516C42.7313 22.2617 42.8318 22.2465 42.9374 22.2059C43.043 22.1624 43.1435 22.0935 43.2389 21.9993C43.3357 21.9035 43.4046 21.8049 43.4457 21.7034C43.4853 21.6005 43.5022 21.5098 43.4963 21.4315C43.4905 21.3503 43.4707 21.2713 43.4369 21.1944C43.4046 21.1161 43.3731 21.0574 43.3423 21.0182C43.3115 20.9761 43.2807 20.9399 43.2499 20.9094C43.1002 20.7615 42.9227 20.6832 42.7173 20.6745C42.512 20.6629 42.3212 20.7441 42.1452 20.9181C41.9662 21.0951 41.8848 21.2858 41.9009 21.4902C41.9171 21.6918 42 21.8666 42.1496 22.0145Z" fill="#262525"/>
<path d="M71.7245 27.8049H68.0258L62.2102 20.2266V27.8049H59V11.6316H62.2102V18.771L67.7932 11.6316H71.4919L65.4669 19.4872L71.7245 27.8049Z" fill="#B5C830"/>
<path d="M85.6276 25.7024C83.9837 27.3197 81.9832 28.1284 79.6259 28.1284C77.2687 28.1284 75.2681 27.3197 73.6242 25.7024C71.9959 24.0697 71.1817 22.0749 71.1817 19.7183C71.1817 17.3616 71.9959 15.3746 73.6242 13.7572C75.2681 12.1245 77.2687 11.3081 79.6259 11.3081C81.9832 11.3081 83.9837 12.1245 85.6276 13.7572C87.2715 15.3746 88.0934 17.3616 88.0934 19.7183C88.0934 22.0749 87.2715 24.0697 85.6276 25.7024ZM75.8807 23.5305C76.8887 24.5164 78.1371 25.0093 79.6259 25.0093C81.1147 25.0093 82.3631 24.5164 83.3712 23.5305C84.3792 22.5293 84.8832 21.2586 84.8832 19.7183C84.8832 18.1779 84.3792 16.9072 83.3712 15.906C82.3631 14.9048 81.1147 14.4041 79.6259 14.4041C78.1371 14.4041 76.8887 14.9048 75.8807 15.906C74.8726 16.9072 74.3686 18.1779 74.3686 19.7183C74.3686 21.2586 74.8726 22.5293 75.8807 23.5305Z" fill="#B5C830"/>
<path d="M106.284 11.6316V27.8049H103.097V17.3154L98.5148 24.8244H98.1426L93.5599 17.3385V27.8049H90.3497V11.6316H93.6529L98.3287 19.2793L102.981 11.6316H106.284Z" fill="#B5C830"/>
<path d="M121.485 11.6316V27.8049H118.275V14.6814H112.529V27.8049H109.319V11.6316H121.485Z" fill="#B5C830"/>
<path d="M123.26 27.8049V24.8475C124.222 24.9862 124.943 24.7936 125.424 24.2699C125.904 23.7462 126.145 22.7219 126.145 21.197V11.6316H137.218V27.8049H134.031V14.6814H129.332V21.1045C129.332 22.5062 129.161 23.6846 128.82 24.6396C128.479 25.5946 128.006 26.3031 127.401 26.7652C126.812 27.2273 126.176 27.5354 125.493 27.6894C124.826 27.8434 124.082 27.882 123.26 27.8049Z" fill="#B5C830"/>
<path d="M143.447 24.7551H150.309V27.8049H140.237V11.6316H150.193V14.6814H143.447V18.124H149.611V21.1276H143.447V24.7551Z" fill="#B5C830"/>
<path d="M165.297 27.8049H161.598L155.782 20.2266V27.8049H152.572V11.6316H155.782V18.771L161.365 11.6316H165.064L159.039 19.4872L165.297 27.8049Z" fill="#B5C830"/>
<path d="M173.221 28.1284C170.771 28.1284 168.747 27.3197 167.15 25.7024C165.552 24.0851 164.754 22.0904 164.754 19.7183C164.754 17.3308 165.552 15.336 167.15 13.7341C168.747 12.1168 170.771 11.3081 173.221 11.3081C174.694 11.3081 176.051 11.6547 177.292 12.3478C178.548 13.0256 179.525 13.9498 180.223 15.1204L177.455 16.7146C177.052 15.9907 176.478 15.4285 175.733 15.028C174.989 14.6121 174.152 14.4041 173.221 14.4041C171.639 14.4041 170.36 14.8971 169.383 15.8829C168.421 16.8687 167.941 18.1471 167.941 19.7183C167.941 21.274 168.421 22.5447 169.383 23.5305C170.36 24.5164 171.639 25.0093 173.221 25.0093C174.152 25.0093 174.989 24.809 175.733 24.4085C176.493 23.9926 177.067 23.4304 177.455 22.7219L180.223 24.3161C179.525 25.4868 178.556 26.4186 177.315 27.1118C176.075 27.7895 174.71 28.1284 173.221 28.1284Z" fill="#B5C830"/>
<path d="M195.194 11.6313V27.8047H191.983V14.6812H186.238V27.8047H183.027V11.6313H195.194Z" fill="#262525"/>
<path d="M204.297 11.6313C205.863 11.6313 207.181 12.155 208.251 13.2025C209.321 14.2499 209.856 15.536 209.856 17.061C209.856 18.5859 209.321 19.872 208.251 20.9195C207.181 21.9669 205.863 22.4906 204.297 22.4906H201.435V27.8047H198.225V11.6313H204.297ZM204.297 19.5101C204.979 19.5101 205.545 19.279 205.995 18.8169C206.444 18.3394 206.669 17.7541 206.669 17.061C206.669 16.3524 206.444 15.7671 205.995 15.305C205.545 14.8429 204.979 14.6118 204.297 14.6118H201.435V19.5101H204.297Z" fill="#262525"/>
<path d="M225.534 25.7022C223.89 27.3195 221.89 28.1282 219.533 28.1282C217.175 28.1282 215.175 27.3195 213.531 25.7022C211.902 24.0694 211.088 22.0747 211.088 19.718C211.088 17.3613 211.902 15.3743 213.531 13.757C215.175 12.1242 217.175 11.3079 219.533 11.3079C221.89 11.3079 223.89 12.1242 225.534 13.757C227.178 15.3743 228 17.3613 228 19.718C228 22.0747 227.178 24.0694 225.534 25.7022ZM215.787 23.5303C216.795 24.5161 218.044 25.009 219.533 25.009C221.021 25.009 222.27 24.5161 223.278 23.5303C224.286 22.5291 224.79 21.2583 224.79 19.718C224.79 18.1777 224.286 16.9069 223.278 15.9057C222.27 14.9045 221.021 14.4039 219.533 14.4039C218.044 14.4039 216.795 14.9045 215.787 15.9057C214.779 16.9069 214.275 18.1777 214.275 19.718C214.275 21.2583 214.779 22.5291 215.787 23.5303Z" fill="#262525"/>
</svg>
