<svg width="75" height="75" viewBox="0 0 75 75" fill="none" xmlns="http://www.w3.org/2000/svg">
<g clip-path="url(#clip0)">
<path d="M73.3367 45.2302L65.5796 41.7827V22.6056C65.6474 22.2907 65.5951 21.9618 65.4331 21.6834V21.6231L65.3642 21.5455C65.2753 21.4177 65.1644 21.3068 65.0366 21.218L48.2987 10.1513L48.1867 10.0737L33.4139 0.213698C33.1998 0.0742417 32.9497 0 32.6942 0C32.4387 0 32.1887 0.0742417 31.9745 0.213698L0.774103 21.037C0.545753 21.138 0.351278 21.3025 0.213874 21.511C0.11752 21.6551 0.0517424 21.8173 0.0206102 21.9878C-0.0105219 22.1583 -0.00634679 22.3334 0.0328772 22.5022V51.5824C0.0312461 51.7959 0.0832634 52.0065 0.184158 52.1947C0.285052 52.383 0.431594 52.5428 0.610344 52.6597L32.259 73.7329C32.4721 73.8713 32.7202 73.9461 32.9743 73.9484C33.2309 73.9449 33.4816 73.8703 33.6983 73.7329L47.4368 64.5797C47.853 66.2372 48.638 67.7795 49.7335 69.0913C50.8289 70.4031 52.2063 71.4506 53.7631 72.1557L59.7964 74.8793C59.9618 74.9587 60.1429 75 60.3264 75C60.5099 75 60.6911 74.9587 60.8565 74.8793L66.8897 72.1557C68.7434 71.3144 70.3373 69.9907 71.5047 68.323C72.6721 66.6552 73.3703 64.7046 73.5263 62.6749L74.1554 46.4627C74.1591 46.1987 74.0828 45.9398 73.9367 45.7198C73.7906 45.4999 73.5814 45.3292 73.3367 45.2302ZM47.2989 45.2302C47.0622 45.3359 46.8621 45.5094 46.7241 45.7288C46.586 45.9482 46.5161 46.2036 46.5232 46.4627L47.0662 61.7096L34.0775 70.3285V44.0667L62.9509 24.812V40.6967L60.8134 39.7572C60.6491 39.6848 60.4715 39.6474 60.2919 39.6474C60.1124 39.6474 59.9348 39.6848 59.7705 39.7572L47.2989 45.2302ZM61.9511 22.3643L32.9398 41.7223L18.6669 32.2415L47.5403 12.7714L61.9511 22.3643ZM32.6468 2.84246L45.1701 11.1942L16.3398 30.6643L3.63558 22.2178L32.6468 2.84246ZM2.61855 24.6397L31.4919 43.8598V70.113L2.61855 50.8928V24.6397ZM70.9578 62.5025C70.832 64.0709 70.2852 65.5761 69.375 66.8595C68.4648 68.1429 67.225 69.1568 65.7865 69.7941L60.3652 72.285L54.8491 69.7941C53.4266 69.1564 52.2007 68.1494 51.2989 66.8778C50.3971 65.6061 49.8522 64.1162 49.7209 62.5628L49.1606 47.2471L60.3652 42.3515L71.5698 47.2471L70.9578 62.5025Z" fill="#262525"/>
<path d="M68.744 52.3977L68.2199 51.8736C68.0552 51.7088 67.8356 51.6182 67.6012 51.6182C67.3668 51.6182 67.1471 51.7088 66.9824 51.8736L59.6181 59.2378L55.017 54.6366C54.8524 54.472 54.6327 54.3812 54.3982 54.3812C54.164 54.3812 53.9444 54.472 53.7796 54.6366L53.2553 55.1605C53.0905 55.3256 53 55.5454 53 55.7796C53 56.0139 53.0905 56.2336 53.2553 56.3984L58.4503 61.593C58.4572 61.6028 58.4645 61.6119 58.4729 61.6202L58.9971 62.1357C59.1618 62.2999 59.3815 62.382 59.6178 62.382H59.6205C59.855 62.382 60.0747 62.2999 60.2392 62.1357L60.7635 61.6157C60.772 61.6074 60.7791 61.6005 60.7834 61.5934L68.7439 53.6338C69.0853 53.2931 69.0853 52.7388 68.744 52.3977Z" fill="#B5C830"/>
</g>
<defs>
<clipPath id="clip0">
<rect width="75" height="75" fill="white"/>
</clipPath>
</defs>
</svg>
