<svg width="75" height="75" viewBox="0 0 75 75" fill="none" xmlns="http://www.w3.org/2000/svg">
<g clip-path="url(#clip0)">
<path d="M72.5334 21.2085V21.2052C72.5334 21.2019 72.5326 21.1994 72.5326 21.1961C72.5317 21.1071 72.5194 21.018 72.4996 20.9306C72.493 20.9025 72.4839 20.8761 72.4756 20.8489C72.4575 20.7887 72.4344 20.7293 72.4064 20.6708C72.3915 20.6403 72.3759 20.6097 72.3585 20.5809C72.347 20.5611 72.3387 20.5388 72.3264 20.5198C72.3041 20.4869 72.2769 20.4596 72.2521 20.4291C72.2324 20.4044 72.2142 20.3796 72.1928 20.3565C72.1292 20.2889 72.0608 20.2287 71.9857 20.1784C71.9849 20.1776 71.9841 20.1768 71.9833 20.1759L71.9825 20.1751C71.98 20.1735 71.9775 20.1718 71.9759 20.1702L41.9799 0.207217C41.5642 -0.0690724 41.024 -0.0690724 40.6083 0.207217L30.05 7.24641L30.0491 7.24724L20.3477 13.7141C20.2149 13.7726 20.0904 13.8526 19.9831 13.9574L3.56 24.9067C3.48083 24.9586 3.40825 25.023 3.34062 25.0939C3.31918 25.117 3.30103 25.1417 3.28124 25.1665C3.2565 25.197 3.22928 25.2234 3.20701 25.2572C3.19381 25.2761 3.18639 25.2976 3.17485 25.3174C3.15753 25.3471 3.14103 25.3776 3.12619 25.4098C3.09897 25.4667 3.0767 25.5252 3.05856 25.5846C3.04948 25.6135 3.04041 25.6407 3.03381 25.6696C3.01485 25.7537 3.0033 25.8386 3.00247 25.9244C3.00247 25.931 3 25.9368 3 25.9425V25.9491V25.95V53.7942C3 54.2082 3.20701 54.595 3.55175 54.8243L33.5535 74.793C33.5576 74.7955 33.5617 74.7963 33.5659 74.7988C33.6525 74.8548 33.7473 74.8969 33.8463 74.9307C33.871 74.939 33.8949 74.9472 33.9197 74.9538C34.0219 74.981 34.1275 75 34.238 75C34.3485 75 34.4541 74.981 34.5564 74.953C34.5811 74.9464 34.6059 74.9381 34.6298 74.9299C34.7312 74.8961 34.8285 74.8532 34.916 74.7955C34.9184 74.7938 34.9209 74.793 34.9234 74.7922L34.9283 74.7889C34.9292 74.7889 34.9292 74.788 34.93 74.788L71.9808 50.0869C72.3247 49.8577 72.5317 49.4717 72.5317 49.0577V21.2143C72.5334 21.2126 72.5334 21.2102 72.5334 21.2085ZM41.2954 2.72269L69.0645 21.206L60.2818 27.0617L32.9259 8.30291L41.2954 2.72269ZM34.2388 44.4242L6.46805 25.9409L20.8557 16.3491L48.2125 35.1079L34.2388 44.4242ZM30.7073 9.78168L58.0632 28.5405L50.4302 33.6292L23.0735 14.8703L30.7073 9.78168ZM51.6319 35.8015L58.9762 30.905L58.7148 42.562L51.6319 47.2086V35.8015ZM5.47423 28.251L33.0017 46.5735V71.4528L5.47423 53.1311V28.251ZM35.476 71.4511V46.5727L49.1576 37.451V49.4997C49.1576 49.9542 49.4075 50.3723 49.8067 50.5884C49.9915 50.6874 50.1935 50.7368 50.3948 50.7368C50.6315 50.7368 50.8682 50.6692 51.0735 50.534L60.6158 44.2733C60.9556 44.0498 61.1643 43.6737 61.1742 43.2663L61.4884 29.23L70.0591 23.5161V48.3954L35.476 71.4511Z" fill="#262525"/>
<path d="M30.738 52.7196C31.138 52.7196 31.5306 52.5266 31.769 52.1678C32.1475 51.5996 31.9933 50.8309 31.4251 50.4524L17.251 41.0181C16.6819 40.6396 15.9133 40.793 15.5355 41.3629C15.157 41.9311 15.3112 42.6998 15.8794 43.0783L30.0543 52.5126C30.2646 52.6528 30.503 52.7196 30.738 52.7196Z" fill="#B5C830"/>
<path d="M31.4248 56.9062L23.3076 51.5033C22.7386 51.1247 21.9699 51.2789 21.5922 51.848C21.2136 52.4163 21.3678 53.1849 21.9361 53.5635L30.0532 58.9664C30.2635 59.1066 30.5019 59.1734 30.7378 59.1734C31.1378 59.1734 31.5303 58.9804 31.7687 58.6216C32.1472 58.0526 31.993 57.2847 31.4248 56.9062Z" fill="#B5C830"/>
</g>
<defs>
<clipPath id="clip0">
<rect width="75.0007" height="75" fill="white"/>
</clipPath>
</defs>
</svg>
