<svg width="75" height="75" viewBox="0 0 75 75" fill="none" xmlns="http://www.w3.org/2000/svg">
<path d="M68.738 23.2978L37.4525 0.249743C37.2345 0.0875178 36.9708 0 36.6999 0C36.4291 0 36.1654 0.0875178 35.9474 0.249743L5.50736 23.2978C5.34984 23.4171 5.22199 23.5717 5.13393 23.7495C5.04587 23.9273 5.00003 24.1234 5.00003 24.3222V68.711C4.99891 68.8799 5.0309 69.0473 5.09414 69.2036C5.15738 69.36 5.25062 69.5021 5.36851 69.6219C5.4864 69.7418 5.6266 69.8368 5.78103 69.9017C5.93547 69.9666 6.10109 70 6.26836 70H67.994C68.3303 70 68.653 69.8651 68.8908 69.625C69.1287 69.3848 69.2623 69.0592 69.2623 68.7196V24.3307C69.2617 24.129 69.2139 23.9303 69.1227 23.7508C69.0316 23.5714 68.8998 23.4161 68.738 23.2978ZM57.4245 51.2201H43.8956V38.4156H57.4245V51.2201ZM41.3589 67.4391H28.6756V53.781H41.3589V67.4391ZM43.8956 53.781H57.4245V67.4391H43.8956V53.781ZM57.4245 35.8547H42.6273C42.2909 35.8547 41.9683 35.9896 41.7304 36.2298C41.4926 36.4699 41.3589 36.7956 41.3589 37.1352V51.2201H27.4073C27.0709 51.2201 26.7483 51.355 26.5104 51.5951C26.2726 51.8353 26.1389 52.1609 26.1389 52.5005V67.4391H17.6834V29.8793H57.4245V35.8547ZM66.7256 67.4391H59.9612V28.5989C59.9612 28.2593 59.8276 27.9336 59.5897 27.6934C59.3518 27.4533 59.0292 27.3184 58.6928 27.3184H16.415C16.0787 27.3184 15.756 27.4533 15.5182 27.6934C15.2803 27.9336 15.1467 28.2593 15.1467 28.5989V67.4391H7.5367V24.9709L36.7168 2.87893L66.7256 24.9795V67.4391Z" fill="#262525"/>
<rect y="72" width="75" height="2.5" rx="1.25" fill="#B5C830"/>
</svg>
