<svg width="75" height="75" viewBox="0 0 75 75" fill="none" xmlns="http://www.w3.org/2000/svg">
<path d="M59.0884 7.54493H47.211V2.46524C47.211 1.86763 46.6881 1.34473 46.0904 1.34473H28.3863C27.7886 1.34473 27.2657 1.86763 27.2657 2.46524V7.54493H14.7159C12.1014 7.54493 10.0098 9.63656 10.0098 12.2511V68.5758C10.0098 71.1903 12.1014 73.282 14.7159 73.282H59.1631C61.7777 73.282 63.8693 71.1903 63.8693 68.5758V12.2511C63.7946 9.63656 61.703 7.54493 59.0884 7.54493ZM28.3863 22.037H46.0904C46.6881 22.037 47.211 21.514 47.211 20.9164V16.0609H55.0546V64.3925H18.7498V16.1356H27.2657V20.9164C27.2657 21.5888 27.7886 22.037 28.3863 22.037ZM44.9699 3.58576V14.9403V19.7959H29.5068V14.9403V8.59074V3.58576H44.9699ZM61.5536 68.5011C61.5536 69.8457 60.4331 70.9662 59.0884 70.9662H14.7159C13.3713 70.9662 12.2508 69.8457 12.2508 68.5011V12.2511C12.2508 10.9065 13.3713 9.78596 14.7159 9.78596H27.2657V13.8945H17.6293C17.0317 13.8945 16.5088 14.4174 16.5088 15.015V65.5878C16.5088 66.1854 17.0317 66.7083 17.6293 66.7083H56.1751C56.7727 66.7083 57.2956 66.1854 57.2956 65.5878V15.015C57.2956 14.4174 56.7727 13.8945 56.1751 13.8945H47.211V9.78596H59.0884C60.4331 9.78596 61.5536 10.9065 61.5536 12.2511V68.5011Z" fill="#262525"/>
<path d="M21.5137 34.6615C21.5137 35.2591 22.0366 35.7821 22.6342 35.7821H51.3942C51.9918 35.7821 52.5147 35.2591 52.5147 34.6615C52.5147 34.0639 51.9918 33.541 51.3942 33.541H22.6342C22.0366 33.541 21.5137 34.0639 21.5137 34.6615Z" fill="#B5C830"/>
<path d="M51.3942 41.3848H22.6342C22.0366 41.3848 21.5137 41.9077 21.5137 42.5053C21.5137 43.1029 22.0366 43.6258 22.6342 43.6258H51.3942C51.9918 43.6258 52.5147 43.1029 52.5147 42.5053C52.5147 41.9077 51.9918 41.3848 51.3942 41.3848Z" fill="#B5C830"/>
<path d="M51.3942 49.6016H22.6342C22.0366 49.6016 21.5137 50.1245 21.5137 50.7221C21.5137 51.3197 22.0366 51.8426 22.6342 51.8426H51.3942C51.9918 51.8426 52.5147 51.3197 52.5147 50.7221C52.5147 50.1245 51.9918 49.6016 51.3942 49.6016Z" fill="#B5C830"/>
</svg>
