<svg width="75" height="75" viewBox="0 0 75 75" fill="none" xmlns="http://www.w3.org/2000/svg">
<path d="M73.7216 36.8636H67.3295V26.2102C67.3295 25.8712 67.1949 25.546 66.9551 25.3063C66.7154 25.0665 66.3902 24.9318 66.0511 24.9318H46.0227V14.2784C46.0227 13.9394 45.888 13.6142 45.6483 13.3744C45.4085 13.1347 45.0834 13 44.7443 13H1.27841C0.939354 13 0.614185 13.1347 0.374437 13.3744C0.134689 13.6142 0 13.9394 0 14.2784V54.3352C0 54.6743 0.134689 54.9995 0.374437 55.2392C0.614185 55.479 0.939354 55.6136 1.27841 55.6136H11.0114C11.1854 57.2111 11.9432 58.688 13.1395 59.761C14.3357 60.834 15.886 61.4274 17.4929 61.4274C19.0998 61.4274 20.6501 60.834 21.8463 59.761C23.0426 58.688 23.8004 57.2111 23.9744 55.6136H52.5682C52.7423 57.2133 53.5011 58.6923 54.6989 59.7667C55.8967 60.8412 57.4491 61.4354 59.0582 61.4354C60.6673 61.4354 62.2197 60.8412 63.4175 59.7667C64.6153 58.6923 65.3741 57.2133 65.5483 55.6136H73.7216C74.0606 55.6136 74.3858 55.479 74.6256 55.2392C74.8653 54.9995 75 54.6743 75 54.3352V38.142C75 37.803 74.8653 37.4778 74.6256 37.2381C74.3858 36.9983 74.0606 36.8636 73.7216 36.8636ZM17.4716 58.8864C16.685 58.8897 15.9151 58.6595 15.2596 58.2247C14.604 57.79 14.0923 57.1704 13.7894 56.4445C13.4864 55.7186 13.4058 54.9191 13.5578 54.1473C13.7098 53.3756 14.0876 52.6663 14.6432 52.1095C15.1988 51.5527 15.9072 51.1734 16.6787 51.0197C17.4501 50.8661 18.2498 50.9449 18.9764 51.2463C19.7029 51.5477 20.3236 52.0581 20.7598 52.7127C21.1959 53.3673 21.4278 54.1367 21.4261 54.9233C21.424 55.9664 21.0116 56.9667 20.278 57.7082C19.5445 58.4497 18.5487 58.8729 17.5057 58.8864H17.4716ZM17.4716 48.3949C16.0721 48.4036 14.7124 48.8612 13.5924 49.7004C12.4725 50.5396 11.6514 51.7161 11.25 53.0568H2.55682V15.5568H43.4659V53.0568H23.7443C23.3433 51.7126 22.52 50.5334 21.3963 49.6937C20.2726 48.854 18.9084 48.3986 17.5057 48.3949H17.4716ZM59.054 58.8864C58.2681 58.8864 57.4999 58.6532 56.8466 58.2164C56.1933 57.7797 55.6842 57.1589 55.3839 56.4327C55.0835 55.7065 55.0054 54.9075 55.1593 54.1368C55.3133 53.3662 55.6924 52.6585 56.2487 52.1034C56.805 51.5483 57.5134 51.1707 58.2844 51.0185C59.0554 50.8662 59.8542 50.9461 60.5798 51.248C61.3053 51.5499 61.925 52.0602 62.3604 52.7145C62.7958 53.3687 63.0273 54.1374 63.0256 54.9233C63.0233 55.9752 62.6039 56.9832 61.8593 57.7261C61.1147 58.4691 60.1058 58.8864 59.054 58.8864ZM72.4432 53.0568H65.3097C64.9011 51.722 64.0749 50.5536 62.9526 49.7234C61.8303 48.8932 60.4712 48.4452 59.0753 48.4452C57.6793 48.4452 56.3202 48.8932 55.198 49.7234C54.0757 50.5536 53.2495 51.722 52.8409 53.0568H46.0227V27.4886H64.7727V38.142C64.7727 38.4811 64.9074 38.8063 65.1472 39.046C65.3869 39.2858 65.7121 39.4205 66.0511 39.4205H72.4432V53.0568Z" fill="#262525"/>
<path d="M11.6038 27.1897H33.6506L30.0363 30.8039C29.9298 30.9032 29.8444 31.0229 29.7851 31.1559C29.7258 31.2889 29.694 31.4325 29.6914 31.578C29.6888 31.7236 29.7156 31.8682 29.7702 32.0033C29.8247 32.1383 29.9059 32.2609 30.0088 32.3639C30.1118 32.4668 30.2344 32.548 30.3694 32.6025C30.5044 32.6571 30.6491 32.6838 30.7946 32.6813C30.9402 32.6787 31.0838 32.6468 31.2168 32.5876C31.3498 32.5283 31.4695 32.4429 31.5688 32.3363L36.4335 27.4716C36.6366 27.2683 36.7506 26.9927 36.7506 26.7054C36.7506 26.4181 36.6366 26.1425 36.4335 25.9392L31.5688 21.0744C31.4663 20.9738 31.3449 20.8944 31.2117 20.8406C31.0785 20.7869 30.936 20.7599 30.7923 20.7613C30.6487 20.7626 30.5067 20.7922 30.3745 20.8485C30.2423 20.9047 30.1225 20.9864 30.0219 21.0889C29.9213 21.1914 29.8418 21.3127 29.7881 21.446C29.7344 21.5792 29.7074 21.7217 29.7087 21.8653C29.7101 22.009 29.7397 22.1509 29.7959 22.2831C29.8521 22.4153 29.9338 22.5351 30.0363 22.6358L32.4217 25.0212H11.6038C11.3162 25.0212 11.0404 25.1354 10.8371 25.3387C10.6338 25.5421 10.5195 25.8179 10.5195 26.1054C10.5195 26.393 10.6338 26.6688 10.8371 26.8721C11.0404 27.0755 11.3162 27.1897 11.6038 27.1897Z" fill="#B5C830"/>
<path d="M35.0971 37.6709C35.0971 37.3833 34.9829 37.1075 34.7795 36.9042C34.5762 36.7008 34.3004 36.5866 34.0128 36.5866H12.0384L15.5803 33.0519C15.6804 32.9503 15.7596 32.83 15.8133 32.6979C15.8669 32.5657 15.894 32.4243 15.893 32.2816C15.892 32.139 15.8629 31.998 15.8074 31.8666C15.7519 31.7352 15.671 31.616 15.5695 31.5159C15.4679 31.4157 15.3476 31.3366 15.2154 31.2829C15.0833 31.2292 14.9418 31.2021 14.7992 31.2032C14.6565 31.2042 14.5155 31.2333 14.3841 31.2888C14.2527 31.3443 14.1336 31.4251 14.0334 31.5267L9.16866 36.3914C8.96561 36.5947 8.85156 36.8703 8.85156 37.1577C8.85156 37.445 8.96561 37.7206 9.16866 37.9239L14.0334 42.7886C14.2376 42.9938 14.5149 43.1094 14.8043 43.1101C15.0937 43.1107 15.3716 42.9964 15.5767 42.7922C15.7818 42.5881 15.8974 42.3108 15.8981 42.0214C15.8988 41.7319 15.7845 41.4541 15.5803 41.249L13.0793 38.7552H34.0418C34.3243 38.7476 34.5927 38.6301 34.7898 38.4275C34.987 38.225 35.0972 37.9535 35.0971 37.6709Z" fill="#B5C830"/>
</svg>
