<svg width="30" height="30" viewBox="0 0 30 30" fill="none" xmlns="http://www.w3.org/2000/svg">
<circle cx="15" cy="15" r="15" fill="#03A9F4"/>
<g clip-path="url(#clip0)">
<path d="M23.1434 10.6461C22.5697 10.8978 21.9583 11.0646 21.3209 11.1456C21.9766 10.7541 22.4771 10.1389 22.7124 9.3974C22.101 9.7619 21.426 10.0194 20.7067 10.163C20.1262 9.54493 19.2988 9.16211 18.3962 9.16211C16.6451 9.16211 15.2353 10.5835 15.2353 12.3259C15.2353 12.5766 15.2565 12.8177 15.3086 13.0472C12.679 12.919 10.3522 11.6586 8.78906 9.73875C8.51617 10.2122 8.35609 10.7541 8.35609 11.3375C8.35609 12.433 8.9202 13.404 9.76106 13.9662C9.25288 13.9565 8.75434 13.809 8.33199 13.5766C8.33199 13.5863 8.33199 13.5988 8.33199 13.6113C8.33199 15.1484 9.42838 16.4251 10.8661 16.7192C10.6087 16.7896 10.3281 16.8234 10.0368 16.8234C9.83434 16.8234 9.62992 16.8118 9.43802 16.7694C9.84784 18.022 11.0108 18.9429 12.3936 18.9728C11.3174 19.8146 9.95102 20.3218 8.47181 20.3218C8.21242 20.3218 7.96363 20.3102 7.71484 20.2784C9.11595 21.1819 10.7765 21.6978 12.5671 21.6978C18.3876 21.6978 21.5697 16.8764 21.5697 12.6972C21.5697 12.5574 21.5649 12.4224 21.5581 12.2883C22.1859 11.8428 22.7133 11.2864 23.1434 10.6461Z" fill="white"/>
</g>
<defs>
<clipPath id="clip0">
<rect width="15.4286" height="15.4286" fill="white" transform="translate(7.71484 7.71484)"/>
</clipPath>
</defs>
</svg>
