<svg width="30" height="30" viewBox="0 0 30 30" fill="none" xmlns="http://www.w3.org/2000/svg">
<circle cx="15" cy="15" r="15" fill="#EE8208"/>
<g clip-path="url(#clip0)">
<path d="M14.6697 18.5821C13.4736 18.4574 12.3951 18.1628 11.4718 17.4407C11.3573 17.3508 11.239 17.2642 11.1344 17.1639C10.7303 16.7757 10.6896 16.3312 11.0094 15.8731C11.2829 15.4811 11.7422 15.3762 12.2195 15.6013C12.3119 15.6449 12.4 15.6994 12.4843 15.7579C14.2051 16.9402 16.569 16.9729 18.2962 15.811C18.4673 15.6798 18.6502 15.5729 18.8622 15.5182C19.2744 15.4124 19.6588 15.5638 19.8801 15.9245C20.1328 16.3364 20.1296 16.7384 19.8182 17.0582C19.3405 17.5484 18.7661 17.9031 18.1278 18.1507C17.5243 18.3846 16.8632 18.5024 16.2089 18.5807C16.3077 18.6881 16.3542 18.7409 16.4159 18.803C17.3043 19.6956 18.1966 20.5845 19.0821 21.4799C19.3838 21.7849 19.4468 22.1632 19.2807 22.5181C19.0991 22.9059 18.6926 23.161 18.2939 23.1337C18.0414 23.1163 17.8444 22.9905 17.6694 22.8143C16.9989 22.1396 16.3159 21.4774 15.6591 20.79C15.4679 20.5902 15.376 20.628 15.2073 20.8015C14.5328 21.4959 13.8473 22.1795 13.1578 22.8593C12.8482 23.1646 12.4798 23.2195 12.1208 23.0452C11.7391 22.8601 11.4962 22.4706 11.515 22.079C11.5279 21.8142 11.6581 21.6119 11.8399 21.4304C12.7191 20.5525 13.5959 19.6723 14.473 18.793C14.531 18.7345 14.5851 18.6724 14.6697 18.5821Z" fill="white"/>
<path d="M15.3984 15.5242C13.2646 15.517 11.515 13.7481 11.5274 11.6109C11.5397 9.45015 13.2905 7.70888 15.4453 7.71486C17.6044 7.72068 19.3374 9.48699 19.3266 11.6702C19.3156 13.803 17.5538 15.5317 15.3984 15.5242ZM17.3376 11.6161C17.3339 10.5549 16.4888 9.71015 15.4298 9.70918C14.3618 9.70805 13.5091 10.5682 13.5174 11.639C13.5253 12.6961 14.3777 13.5349 15.4396 13.5311C16.4983 13.5273 17.3412 12.6771 17.3376 11.6161Z" fill="white"/>
</g>
<defs>
<clipPath id="clip0">
<rect width="15.4286" height="15.4286" fill="white" transform="translate(7.71484 7.71484)"/>
</clipPath>
</defs>
</svg>
