<svg width="30" height="30" viewBox="0 0 30 30" fill="none" xmlns="http://www.w3.org/2000/svg">
<circle cx="15" cy="15" r="15" fill="#4A76A8"/>
<g clip-path="url(#clip0)">
<path d="M22.8396 19.0258C22.7912 18.9448 22.4919 18.2945 21.0518 16.9579C19.5442 15.5583 19.7467 15.7855 21.5626 13.3655C22.6685 11.8916 23.1107 10.9915 22.9723 10.6068C22.8407 10.24 22.0272 10.3367 22.0272 10.3367L19.3225 10.3525C19.3225 10.3525 19.1223 10.3255 18.9726 10.4144C18.8275 10.5021 18.7341 10.7046 18.7341 10.7046C18.7341 10.7046 18.3055 11.8455 17.7339 12.8153C16.529 14.8618 16.0463 14.9698 15.8494 14.8427C15.3915 14.5468 15.5063 13.6524 15.5063 13.0178C15.5063 11.0343 15.8067 10.2074 14.9201 9.99359C14.6253 9.92271 14.4093 9.87546 13.6566 9.86758C12.6913 9.85745 11.8734 9.87096 11.411 10.0971C11.1027 10.2479 10.8653 10.5843 11.0104 10.6034C11.1893 10.627 11.5944 10.7125 11.8092 11.005C12.0871 11.3819 12.077 12.2303 12.077 12.2303C12.077 12.2303 12.2368 14.5648 11.7046 14.8551C11.339 15.0542 10.8383 14.6481 9.76385 12.7905C9.21368 11.8399 8.7974 10.7879 8.7974 10.7879C8.7974 10.7879 8.71752 10.5921 8.57464 10.4875C8.40137 10.3604 8.15836 10.3199 8.15836 10.3199L5.58642 10.3356C5.58642 10.3356 5.20052 10.3469 5.05876 10.5145C4.93275 10.6641 5.04863 10.9724 5.04863 10.9724C5.04863 10.9724 7.06253 15.6831 9.34194 18.0582C11.4335 20.2352 13.8074 20.0923 13.8074 20.0923H14.883C14.883 20.0923 15.2081 20.0563 15.3735 19.8775C15.5265 19.7132 15.5209 19.4049 15.5209 19.4049C15.5209 19.4049 15.4995 17.9614 16.1701 17.7488C16.8305 17.5395 17.6788 19.1439 18.5777 19.7616C19.2573 20.2285 19.7737 20.1261 19.7737 20.1261L22.178 20.0923C22.178 20.0923 23.4358 20.0147 22.8396 19.0258Z" fill="white"/>
</g>
<defs>
<clipPath id="clip0">
<rect width="18" height="18" fill="white" transform="translate(5 6)"/>
</clipPath>
</defs>
</svg>
