<?xml version="1.0" encoding="utf-8"?><svg xmlns="http://www.w3.org/2000/svg" xmlns:xlink="http://www.w3.org/1999/xlink"><symbol viewBox="0 0 24 24" id="arrow-top" xmlns="http://www.w3.org/2000/svg"><g clip-path="url(#aa)"><path d="M12.664.275l4.876 4.9a.938.938 0 01-1.33 1.322l-3.273-3.289v19.854a.937.937 0 11-1.874 0V3.209L7.79 6.498a.937.937 0 11-1.33-1.324L11.336.276l.001-.001a.938.938 0 011.328 0z"/></g><defs><clipPath id="aa"><path transform="matrix(0 -1 -1 0 24 24)" d="M0 0h24v24H0z"/></clipPath></defs></symbol><symbol viewBox="0 0 24 24" id="cart" xmlns="http://www.w3.org/2000/svg"><g clip-path="url(#ba)"><path d="M23.014 5.006H4.249L3.969 1.9a.986.986 0 00-.98-.898H.985a.986.986 0 000 1.972h1.101l1.134 12.63c.08.91.572 1.897 1.42 2.569-1.528 1.95-.133 4.826 2.352 4.826 2.063 0 3.517-2.056 2.81-4.005h5.395C14.49 20.94 15.943 23 18.008 23a2.992 2.992 0 002.988-2.989 2.992 2.992 0 00-2.988-2.988H7a1.83 1.83 0 01-1.683-1.11l15.752-.926a.986.986 0 00.899-.744l2.002-8.01a.986.986 0 00-.956-1.226zM6.994 21.027a1.018 1.018 0 010-2.034 1.018 1.018 0 010 2.034zm11.014 0a1.018 1.018 0 010-2.034 1.018 1.018 0 010 2.034zm2.223-7.966l-15.18.892-.625-6.975h17.326L20.23 13.06z"/></g><defs><clipPath id="ba"><path d="M0 0h24v24H0z"/></clipPath></defs></symbol><symbol viewBox="0 0 15 15" id="catalog" xmlns="http://www.w3.org/2000/svg"><path d="M0 0h5v5H0zm10 0h5v5h-5zM0 10h5v5H0zm10 0h5v5h-5z"/></symbol><symbol viewBox="0 0 20 20" id="tell" xmlns="http://www.w3.org/2000/svg"><path d="M15.205 13.23c-.653-.645-1.469-.645-2.118 0-.495.492-.99.983-1.478 1.482-.133.137-.245.167-.408.075-.32-.175-.661-.316-.97-.508-1.435-.903-2.638-2.064-3.703-3.37-.529-.65-1-1.345-1.328-2.128-.066-.158-.054-.262.075-.39.495-.48.978-.97 1.465-1.462.678-.682.678-1.481-.004-2.168-.387-.391-.774-.774-1.161-1.165-.4-.4-.795-.803-1.199-1.199-.653-.637-1.47-.637-2.118.004-.5.491-.978.995-1.486 1.478-.47.445-.708.99-.758 1.627C-.065 6.542.19 7.52.547 8.473c.733 1.973 1.848 3.725 3.2 5.332a19.806 19.806 0 006.56 5.131c1.148.558 2.339.987 3.633 1.057.89.05 1.665-.174 2.285-.87.424-.474.903-.907 1.352-1.36.666-.675.67-1.49.009-2.156-.791-.795-1.586-1.586-2.38-2.377zm-.795-3.317l1.535-.262a6.863 6.863 0 00-1.918-3.704 6.827 6.827 0 00-3.912-1.952L9.898 5.54a5.296 5.296 0 013.03 1.511 5.295 5.295 0 011.482 2.863zm2.402-6.675A11.324 11.324 0 0010.32 0l-.216 1.544a9.825 9.825 0 015.61 2.797 9.81 9.81 0 012.75 5.306L20 9.385a11.407 11.407 0 00-3.188-6.147z"/></symbol><symbol viewBox="0 0 24 24" id="zoom" xmlns="http://www.w3.org/2000/svg"><path d="M21.917 21.038l-5.236-5.445a8.854 8.854 0 002.084-5.71C18.765 4.984 14.78 1 9.882 1 4.985 1 1 4.985 1 9.882c0 4.898 3.985 8.883 8.882 8.883 1.84 0 3.591-.555 5.09-1.607l5.275 5.487c.22.229.517.355.835.355a1.16 1.16 0 00.835-1.962zM9.882 3.319a6.573 6.573 0 016.566 6.564 6.573 6.573 0 01-6.566 6.566 6.573 6.573 0 01-6.565-6.566 6.573 6.573 0 016.565-6.565z"/></symbol></svg>