<svg width="24" height="24" viewBox="0 0 24 24" fill="none" xmlns="http://www.w3.org/2000/svg">
<g clip-path="url(#clip0)">
<path d="M12.6636 0.274971C12.6639 0.275252 12.6642 0.275486 12.6645 0.275814L17.5395 5.17444C17.9047 5.54142 17.9033 6.135 17.5363 6.5003C17.1693 6.86555 16.5758 6.86414 16.2105 6.49716L12.9375 3.20822L12.9375 23.0625C12.9375 23.5803 12.5178 24 12 24C11.4822 24 11.0625 23.5803 11.0625 23.0625L11.0625 3.20827L7.78952 6.49711C7.42427 6.8641 6.83069 6.8655 6.46371 6.50025C6.09663 6.13495 6.09537 5.54133 6.46052 5.17439L11.3355 0.275767C11.3358 0.275486 11.3361 0.275252 11.3364 0.274924C11.7029 -0.0922486 12.2984 -0.0910757 12.6636 0.274971Z" fill="#262525"/>
</g>
<defs>
<clipPath id="clip0">
<rect width="24" height="24" fill="white" transform="matrix(-4.37114e-08 -1 -1 4.37114e-08 24 24)"/>
</clipPath>
</defs>
</svg>
