<svg width="24" height="24" viewBox="0 0 24 24" fill="none" xmlns="http://www.w3.org/2000/svg">
<path d="M21.9171 21.0385L16.6811 15.5928C18.0273 13.9924 18.765 11.9788 18.765 9.88249C18.765 4.98476 14.7802 1 9.88249 1C4.98476 1 1 4.98476 1 9.88249C1 14.7802 4.98476 18.765 9.88249 18.765C11.7212 18.765 13.4733 18.2104 14.9714 17.1576L20.2472 22.6447C20.4677 22.8737 20.7643 23 21.0822 23C21.383 23 21.6684 22.8853 21.8851 22.6768C22.3454 22.2338 22.3601 21.4992 21.9171 21.0385ZM9.88249 3.31717C13.5027 3.31717 16.4478 6.2623 16.4478 9.88249C16.4478 13.5027 13.5027 16.4478 9.88249 16.4478C6.2623 16.4478 3.31717 13.5027 3.31717 9.88249C3.31717 6.2623 6.2623 3.31717 9.88249 3.31717Z" fill="#B5C830"/>
</svg>
